<?xml version="1.0" encoding="utf-8"?>
<!-- Generator: Adobe Illustrator 24.2.3, SVG Export Plug-In . SVG Version: 6.00 Build 0)  -->
<svg version="1.1" id="Layer_1" xmlns="http://www.w3.org/2000/svg" xmlns:xlink="http://www.w3.org/1999/xlink" x="0px" y="0px"
	 viewBox="0 0 360 196" style="enable-background:new 0 0 360 196;" xml:space="preserve">
<style type="text/css">
	.st0{fill:none;}
	.st1{fill:url(#SVGID_1_);}
	.st2{fill:#D3D5D8;}
	.st3{fill:url(#SVGID_2_);}
	.st4{fill-rule:evenodd;clip-rule:evenodd;fill:#FF9205;}
	.st5{fill:none;stroke:#D3D5D8;stroke-width:0.8;stroke-miterlimit:10;}
	.st6{fill:none;stroke:#D3D5D8;stroke-width:0.8;stroke-miterlimit:10;stroke-dasharray:4.97,4.97;}
	.st7{fill:none;stroke:#D3D5D8;stroke-width:0.8;stroke-miterlimit:10;stroke-dasharray:5.36,5.36;}
	.st8{fill:none;stroke:#D3D5D8;stroke-width:0.8;stroke-miterlimit:10;stroke-dasharray:4.66,4.66;}
	.st9{fill:url(#SVGID_3_);}
	.st10{fill:#829CA9;}
	.st11{fill:url(#SVGID_4_);}
	.st12{fill:#C58F62;}
	.st13{fill:#5D7079;}
	.st14{fill:url(#SVGID_5_);}
	.st15{fill:url(#SVGID_6_);}
	.st16{fill:url(#SVGID_7_);}
	.st17{fill:url(#SVGID_8_);}
	.st18{fill:#2F4367;}
	.st19{fill:none;stroke:#6F878F;stroke-width:1.42;stroke-miterlimit:10;}
	.st20{fill:#A8AAAC;}
	.st21{fill:url(#SVGID_9_);}
	.st22{fill:url(#SVGID_10_);}
</style>
<path id="frames" class="st0" d="M0,0h360v196H0V0z"/>
<g id="Layer_1_1_">
	
		<linearGradient id="SVGID_1_" gradientUnits="userSpaceOnUse" x1="157.0825" y1="45.6093" x2="205.8954" y2="160.5962" gradientTransform="matrix(1 0 0 -1 0 198)">
		<stop  offset="0" style="stop-color:#E2E6E8;stop-opacity:0.1"/>
		<stop  offset="1" style="stop-color:#E2E6E8"/>
	</linearGradient>
	<path class="st1" d="M120,53.2h122.6c1.5,0,2.7,1.2,2.7,2.7v0v79.6h-128V55.9C117.3,54.4,118.5,53.2,120,53.2
		C120,53.2,120,53.2,120,53.2z"/>
	<circle class="st2" cx="121.3" cy="57.2" r="1.6"/>
	<circle class="st2" cx="126.1" cy="57.2" r="1.6"/>
	<circle class="st2" cx="130.9" cy="57.2" r="1.6"/>
	
		<linearGradient id="SVGID_2_" gradientUnits="userSpaceOnUse" x1="236.54" y1="26.61" x2="236.54" y2="34.31" gradientTransform="matrix(1 0 0 -1 0 198)">
		<stop  offset="0" style="stop-color:#000000;stop-opacity:0"/>
		<stop  offset="1" style="stop-color:#000000;stop-opacity:0.2"/>
	</linearGradient>
	<ellipse class="st3" cx="236.5" cy="167.5" rx="41.6" ry="3.9"/>
	<path class="st4" d="M231.2,79.1h-74.4l2.7-6.4h74.4L231.2,79.1z"/>
	<path class="st5" d="M232.1,99.2l-0.9,2.2h-2.4"/>
	<path class="st6" d="M223.8,101.4h-86.9"/>
	<path class="st5" d="M134.4,101.4H132l0.9-2.2 M133.8,97.3l0.9-2.2h2.4"/>
	<path class="st6" d="M142.1,95.1H229"/>
	<path class="st5" d="M231.5,95.1h2.4l-0.9,2.2 M175.3,121.6l-0.9,2.2h-2.4"/>
	<path class="st7" d="M166.6,123.8h-29.4"/>
	<path class="st5" d="M134.4,123.8H132l0.9-2.2 M133.8,119.7l0.9-2.2h2.4"/>
	<path class="st7" d="M142.5,117.4H172"/>
	<path class="st5" d="M174.6,117.4h2.4l-0.9,2.2 M186.2,119.7l0.9-2.2h2.4"/>
	<path class="st8" d="M194.2,117.4h34.9"/>
	<path class="st5" d="M231.5,117.4h2.4l-0.9,2.2 M232.1,121.6l-0.9,2.2h-2.4"/>
	<path class="st8" d="M224.1,123.8h-34.9"/>
	<path class="st5" d="M186.9,123.8h-2.4l0.9-2.2"/>
	<path class="st4" d="M194.3,162.7H245l-2.7,6.4h-50.7L194.3,162.7L194.3,162.7z"/>
	<path class="st4" d="M229.5,153.6l49.9,8.7l-3.8,5.8l-49.9-8.7L229.5,153.6z"/>
	<linearGradient id="SVGID_3_" gradientUnits="userSpaceOnUse" x1="132.04" y1="75.85" x2="147.12" y2="75.85">
		<stop  offset="0" style="stop-color:#FF9205"/>
		<stop  offset="1" style="stop-color:#FF7205"/>
	</linearGradient>
	<circle class="st9" cx="139.6" cy="75.8" r="7.5"/>
	<circle class="st10" cx="139.6" cy="73.4" r="2.9"/>
	<path class="st10" d="M139.6,78.3c-2.2,0-4.4,0.6-6.2,1.8c1.2,1.8,3.2,3,5.4,3.2c0.6,0.1,1.1,0.1,1.7,0c2.2-0.2,4.2-1.4,5.4-3.2
		C144,78.9,141.8,78.2,139.6,78.3z"/>
	
		<linearGradient id="SVGID_4_" gradientUnits="userSpaceOnUse" x1="150.54" y1="28.3336" x2="178.06" y2="28.3336" gradientTransform="matrix(1 0 0 -1 0 198)">
		<stop  offset="0" style="stop-color:#000000;stop-opacity:0"/>
		<stop  offset="0.15" style="stop-color:#000000;stop-opacity:5.000000e-02"/>
		<stop  offset="1" style="stop-color:#000000;stop-opacity:0.1"/>
	</linearGradient>
	<path class="st11" d="M150.5,168.3h12.2c1.5,0,3.1,0,4.6,0.2c5.7,0.7,10.6,1.3,10.8,1.8h-2.7l0.3,0.8h-22"/>
	<path class="st12" d="M174.3,165.1v3.4l1.5,0.4l0.6-3.8C175.6,165.1,174.8,165.1,174.3,165.1z"/>
	<path class="st13" d="M177.7,170.5l-2.1,0.6l-2.2-1.8c-0.1-0.1-0.2-0.1-0.2-0.2l1.1-1.7c0.1-0.1,0.2-0.1,0.4,0
		c0.8,0.5,1.3,1.3,1.6,2.3c0.6,0.1,1.2,0.3,1.7,0.5c0.1,0.1,0.1,0.1,0.1,0.2C177.8,170.4,177.8,170.5,177.7,170.5z"/>
	<path class="st12" d="M163.6,163.3v3.4l1.5,0.4l0.6-3.8C164.8,163.3,164.1,163.3,163.6,163.3z"/>
	<path class="st13" d="M166.9,168.7l-2.1,0.6l-2.2-1.8c-0.1-0.1-0.2-0.1-0.2-0.2l1.1-1.7c0.1-0.1,0.3-0.1,0.4,0
		c0.8,0.5,1.3,1.3,1.6,2.3c0.6,0.1,1.1,0.3,1.7,0.5c0.1,0.1,0.1,0.1,0.1,0.2C167.1,168.6,167,168.7,166.9,168.7L166.9,168.7z"/>
	<linearGradient id="SVGID_5_" gradientUnits="userSpaceOnUse" x1="162" y1="146.4708" x2="170.6572" y2="146.4708">
		<stop  offset="0" style="stop-color:#FF9205"/>
		<stop  offset="1" style="stop-color:#FF7205"/>
	</linearGradient>
	<path class="st14" d="M168.9,128.4h-5.6c-1.9,7.3-0.3,12.2-0.1,20.5c0,5.1-0.3,10.2-1.1,15.2c0.7,0.4,1.5,0.5,2.3,0.5
		c0.9,0,1.8-0.1,2.5-0.5c0.5-4.4,2.6-10.3,3-15.4C170.1,145.1,172,128,168.9,128.4L168.9,128.4z"/>
	<linearGradient id="SVGID_6_" gradientUnits="userSpaceOnUse" x1="166.0793" y1="146.8764" x2="179.155" y2="146.8764">
		<stop  offset="0" style="stop-color:#FF9205"/>
		<stop  offset="1" style="stop-color:#FF7205"/>
	</linearGradient>
	<path class="st15" d="M175.7,128.7l-9.6-0.4c-0.2,7.5,3.3,13.6,5.7,21.6c2.3,7.6,1.1,15.2,1.2,15.2c0.8,0.3,1.6,0.3,2.4,0.2
		c0.9-0.1,1.7-0.4,2.4-0.9c-0.2-4.4,1.7-12.9,1.3-18C178.8,142.9,178.8,127.9,175.7,128.7L175.7,128.7z"/>
	<linearGradient id="SVGID_7_" gradientUnits="userSpaceOnUse" x1="161.8161" y1="118.655" x2="179.0675" y2="118.655">
		<stop  offset="0" style="stop-color:#FF9205"/>
		<stop  offset="1" style="stop-color:#FF7205"/>
	</linearGradient>
	<path class="st16" d="M177,130.1c0.4-0.2,0-1,0.5-1.4c3.5-2.7,0-18.8,0.6-20.5c0.3-0.7-3-0.9-5.9-1h-3.6c-2.9,0.1-5.6,0.4-6.3,0.9
		c-1.1,0.9-0.2,9,0,15.5c0.2,1.7,0.5,3.4,0.9,5l4.3,1c0.7,0.1,3.9,0.5,4.5,0.5L177,130.1z"/>
	<path class="st12" d="M169.8,97.9L169.8,97.9c1.6-0.3,3.1,0.7,3.4,2.3l0.3,1.3c0.3,1.6-0.7,3.1-2.3,3.4h0c-1.6,0.3-3.1-0.7-3.4-2.3
		l-0.3-1.3C167.2,99.8,168.2,98.2,169.8,97.9z"/>
	<path class="st10" d="M172.4,103.4c0.2-0.2-0.6-1.3-0.6-2.2s0.5-1.2,0.3-1.4c-0.5-0.4-4.7,0.4-5,1c-0.1,0.5-0.1,0.9,0.1,1.4
		c0.2,0.7,0.5,1.4,0.9,2.1C168.7,104.6,171.9,103.9,172.4,103.4z"/>
	<linearGradient id="SVGID_8_" gradientUnits="userSpaceOnUse" x1="169.14" y1="106.72" x2="172.85" y2="106.72">
		<stop  offset="0" style="stop-color:#FF9205"/>
		<stop  offset="1" style="stop-color:#FF7205"/>
	</linearGradient>
	<path class="st17" d="M169.1,106.2h3.7v1.1h-3.7V106.2z"/>
	<path class="st0" d="M186.6,132l0.1,0.2"/>
	<path class="st18" d="M177.2,130.2c0,0-9,0.1-9.6-0.5l-4.6-0.5v-1.4c1.6,0.3,3.3,0.6,4.9,0.7c2.3,0.2,9.6,0.2,9.6,0.2L177.2,130.2z
		"/>
	<path class="st19" d="M167,129.2c0.3-2.2,0.2-4.3,0.9-7.4"/>
	<circle class="st20" cx="167" cy="129" r="0.8"/>
	<path class="st4" d="M230.9,102.6L132,95.5l3.2-6.2l98.9,7.1L230.9,102.6z"/>
	<linearGradient id="SVGID_9_" gradientUnits="userSpaceOnUse" x1="156.5299" y1="104.4424" x2="167.8719" y2="104.4424">
		<stop  offset="0" style="stop-color:#FF9205"/>
		<stop  offset="1" style="stop-color:#FF7205"/>
	</linearGradient>
	<path class="st21" d="M157.5,103.4c0.4,1.3,4.3,6.4,4.4,10.7c0.2,3.8,8.6-7.3,5.1-7c-0.5,0-1.1-0.1-1.5-0.3c-1.6-0.7-3.7-3-5-5.1
		c-0.5-0.8-1.9-7.6-1.9-7.6h-0.1c-0.6,0.3-1.3,0.3-2,0.2C156.5,94.2,156.5,100.6,157.5,103.4z"/>
	<circle class="st12" cx="157.4" cy="92.6" r="1"/>
	<linearGradient id="SVGID_10_" gradientUnits="userSpaceOnUse" x1="174.9879" y1="106.7399" x2="187.61" y2="106.7399">
		<stop  offset="0" style="stop-color:#FF9205"/>
		<stop  offset="1" style="stop-color:#FF7205"/>
	</linearGradient>
	<path class="st22" d="M184.3,106.3c-0.7,1.1-5.6,5-5.6,9.3c0,4.2-5.2-8.6-3.3-8.4c0.4,0.1,0.8,0.1,1.1,0c2-0.9,3.7-2.1,5.2-3.6
		c0.7-0.7,4-6.6,4-6.6c0.5,0.4,1.2,0.7,1.9,0.7C187.6,97.6,186,103.8,184.3,106.3z"/>
	<circle class="st12" cx="187" cy="95.5" r="1"/>
	<path class="st19" d="M167,106.7c-0.1,0.6-3.9,14.7,1.2,15.1c5.6,0.5,6.6-14.9,6.6-14.9"/>
</g>
</svg>
