<?xml version="1.0" encoding="utf-8"?>
<!-- Generator: Adobe Illustrator 24.2.3, SVG Export Plug-In . SVG Version: 6.00 Build 0)  -->
<svg version="1.1" id="Layer_1" xmlns="http://www.w3.org/2000/svg" xmlns:xlink="http://www.w3.org/1999/xlink" x="0px" y="0px"
	 viewBox="0 0 360 196" style="enable-background:new 0 0 360 196;" xml:space="preserve">
<style type="text/css">
	.st0{fill:none;}
	.st1{fill:url(#SVGID_1_);}
	.st2{fill:url(#SVGID_2_);}
	.st3{opacity:0.46;fill:#FFD2A6;}
	.st4{fill:#FFD2A6;}
	.st5{fill:#5D7077;}
	.st6{fill:#845739;}
	.st7{fill:#253655;}
	.st8{fill:url(#SVGID_3_);}
	.st9{fill:url(#SVGID_4_);}
	.st10{fill:#FF9205;}
	.st11{fill:#FFFFFF;}
	.st12{fill:#2ED06E;}
	.st13{fill:#27B35F;}
	.st14{fill:none;stroke:#2ED06E;stroke-width:1.17;stroke-miterlimit:10;}
	.st15{fill:url(#SVGID_5_);}
	.st16{clip-path:url(#SVGID_7_);}
	.st17{fill:#2F4367;}
	.st18{fill:#C58F62;}
	.st19{fill:#38527D;}
	.st20{fill:#FFFEFE;}
	.st21{fill:url(#SVGID_8_);}
	.st22{fill:#829CA9;}
	.st23{opacity:0.2;enable-background:new    ;}
	.st24{fill:url(#SVGID_9_);}
	.st25{fill:#849DA9;}
	.st26{fill:url(#SVGID_10_);}
	.st27{fill:url(#SVGID_11_);}
</style>
<g id="frames">
	<rect class="st0" width="360" height="196"/>
</g>
<g id="Layer_1_1_">
	
		<linearGradient id="SVGID_1_" gradientUnits="userSpaceOnUse" x1="-6456.7837" y1="376.9609" x2="-6441.1055" y2="376.9609" gradientTransform="matrix(-0.4534 0.8913 0.8913 0.4534 -3035.2161 5658.4282)">
		<stop  offset="0" style="stop-color:#2ED06E;stop-opacity:0.1"/>
		<stop  offset="1" style="stop-color:#2ED06E"/>
	</linearGradient>
	<path class="st1" d="M210.3,67.9l1.1-2.1c12.2,6.2,21.9,16.6,27.1,29.4l-2.2,0.9C231.3,83.8,222.1,73.8,210.3,67.9z"/>
	
		<linearGradient id="SVGID_2_" gradientUnits="userSpaceOnUse" x1="161.8352" y1="39.9653" x2="197.5849" y2="124.1747" gradientTransform="matrix(1 0 0 -1 0 198)">
		<stop  offset="0" style="stop-color:#E2E6E8;stop-opacity:0.1"/>
		<stop  offset="1" style="stop-color:#E2E6E8"/>
	</linearGradient>
	<circle class="st2" cx="179.7" cy="115.9" r="45.7"/>
	<path class="st3" d="M222.8,129.4L222.8,129.4l-0.8-0.3h-19c-0.3,0-0.6,0.1-0.8,0.3l-9,9c-0.2,0.2-0.3,0.5-0.3,0.8v1.1
		c0,0.3,0.1,0.6,0.3,0.8l9.8,9.8c0.4,0.4,0.4,1.1,0,1.6c0,0,0,0,0,0l-5.2,5.2c-0.1,0.1-0.3,0.3-0.3,0.5
		c12.1-5.1,21.4-15.1,25.5-27.6C223.1,130.2,223.1,129.7,222.8,129.4z"/>
	<path class="st3" d="M174.6,76.6v5.1c0,1.6-1.3,2.8-2.8,2.8l0,0c-1.6,0-2.8,1.3-2.8,2.8v4.7c0,1.6-1.2,2.9-2.8,2.9c0,0-0.1,0-0.1,0
		l0,0c-1.6,0-2.8,1.3-2.8,2.8l0,0c0,1.6,1.3,2.8,2.8,2.8h1.8c0.4,0,0.7,0.2,1,0.4l19.3,18.7c0.5,0.5,1.3,0.8,2,0.8h32.4
		c1.5,0,2.8-1.2,2.9-2.7c0-0.6,0-1.2,0-1.9c0-24.7-19.6-44.9-44.3-45.7c-0.8,0-1.6,0.3-2.1,0.8l-3.5,3.5
		C174.9,75.1,174.6,75.8,174.6,76.6z"/>
	<path class="st3" d="M164.3,153.6v-30.4c0-2-1.6-3.6-3.6-3.6l0,0h-1.2c-2,0-3.6-1.6-3.6-3.5c0,0,0,0,0,0v-2.4c0-2-1.6-3.6-3.5-3.6
		c0,0,0,0,0,0h-5.5c-0.9,0-1.8-0.3-2.5-1l-3.6-3.6c-0.7-0.7-1.6-1-2.5-1l0,0c-1.7,0-3.2,1.2-3.5,2.9c-3.8,20.1,6.1,40.2,24.4,49.4
		c1.8,0.9,3.9,0.2,4.8-1.6C164.2,154.7,164.3,154.2,164.3,153.6z"/>
	<circle class="st4" cx="229.7" cy="132.9" r="21"/>
	<path class="st5" d="M243.6,133.3c0.6,0.4,3.8,6.4,0.5,5.3c-0.9-0.3-1.8-0.9-2.4-1.7c-0.2-0.3-0.4-0.7-0.4-1.1c0-0.3,0-0.6,0.1-0.9
		l0.3-1.3C242,132.7,242.6,132.5,243.6,133.3z"/>
	<path class="st6" d="M229.4,135.6L229.4,135.6c-2.4-0.3-4.1-2.4-3.9-4.8l0,0c0.3-2.4,2.4-4.1,4.8-3.9l0,0c2.4,0.3,4.1,2.4,3.9,4.8
		l0,0C233.9,134.1,231.8,135.9,229.4,135.6z"/>
	<path class="st7" d="M225.1,128.8c-0.6-1.1,0.3-4.9,2.4-4.9c1.2,0,0.9,1.4,1.7,1.6s1.2-0.7,2.3-0.4s0.8,1.6,1.4,1.7s0.9-1,2-0.7
		c1.8,0.5,1.5,4.5,0.5,6.1c-0.8,1.1-1.8,2-3.1,2.6c-0.2,0,0.8-1.6-0.1-2c-0.6-0.3-0.9,0.3-1.1,0.1s0.8-1.1,0.1-2s-2.8,0.2-4-0.2
		C226.4,130.3,225.6,129.6,225.1,128.8z"/>
	<circle class="st6" cx="249.8" cy="122.3" r="1.3"/>
	<path class="st6" d="M244,138.2l-2.3-3.8c1.8-1.4,3.2-3.1,4.2-5.1c0.2-0.4,2.3-5.6,2.2-5.6c0.5,0.6,1.2,1,2,1
		C249.7,133.9,244.4,137.8,244,138.2z"/>
	<path class="st6" d="M230.1,140.3c1.8,0,3.3-1.5,3.4-3.3c-1.1,0.2-2.2,0.3-3.4,0.3c-1.1,0-2.2-0.1-3.3-0.3
		C226.8,138.8,228.3,140.3,230.1,140.3z"/>
	<path class="st5" d="M217.5,131.7c-0.6,0.3-4.9,5.6-1.5,5.1c1-0.1,1.9-0.5,2.6-1.2c0.3-0.3,0.5-0.6,0.6-1c0-0.3,0-0.6,0-0.9
		l-0.1-1.3C219.2,131.4,218.6,131.2,217.5,131.7z"/>
	<circle class="st6" cx="215.4" cy="118.4" r="1.3"/>
	<path class="st6" d="M215.8,135.8c0.9,1.4,3.4-2.8,3.4-2.8c-1.2-1.9-2-4-2.3-6.2c-0.1-0.5-0.4-6.5-0.4-6.5
		c-0.7,0.5-1.5,0.6-2.3,0.3C211.7,129.4,215.5,135.3,215.8,135.8z"/>
	<linearGradient id="SVGID_3_" gradientUnits="userSpaceOnUse" x1="214.77" y1="142.37" x2="225.92" y2="142.37">
		<stop  offset="0" style="stop-color:#FF9205"/>
		<stop  offset="1" style="stop-color:#FF7205"/>
	</linearGradient>
	<path class="st8" d="M219,131.6l-0.1,0.5c-0.2,1-0.7,2-1.3,2.8c-0.7,0.8-1.7,1.3-2.8,1.4l0,0c0.5,1.1,2.9,3.6,3.4,4.8
		c1.6,3.4-1,7.9-1,7.9c-0.1,0.2-0.2,0.4-0.3,0.6c2.1,1.6,4.5,2.8,7,3.5c0.2-5.6,0.9-11.1,2-16.6c-1.4-0.1-2.8-0.7-3.8-1.6L219,131.6
		z"/>
	<linearGradient id="SVGID_4_" gradientUnits="userSpaceOnUse" x1="219.47" y1="143.4043" x2="245.48" y2="143.4043">
		<stop  offset="0" style="stop-color:#FF9205"/>
		<stop  offset="1" style="stop-color:#FF7205"/>
	</linearGradient>
	<path class="st9" d="M245.5,138.3L245.5,138.3c-1-0.3-1.9-0.9-2.4-1.8c-0.5-0.9-0.8-2-0.8-3.1v-0.5l-3.7,2.6c0,0-1.3,1-4.9,1
		c-0.1,0-0.1,0.1-0.1,0.1c-0.1,1.8-1.7,3.2-3.6,3.1c-1.6-0.1-3-1.4-3.1-3c0-0.1-0.1-0.2-0.2-0.2c-2.3-0.1-3.9-0.2-5-0.2l0,0
		c-0.3,1.7-0.1,3.7-0.6,5.2c-0.3,1-0.7,2-1.1,2.9c0.1,0.2,0.2,0.4,0.2,0.7c0.2,2,0,4.1-0.6,6.1c5.8,3.3,12.9,3.6,18.9,0.8
		c0.8-0.4,1.6-0.9,2.4-1.4c0-0.1-0.6-6.3,0.5-8.3C241.9,141.2,244.8,139.3,245.5,138.3z"/>
	<path class="st10" d="M169.2,35.2h21c1.8,0,3.2,1.5,3.2,3.2v21c0,1.8-1.5,3.2-3.2,3.2h-21c-1.8,0-3.2-1.5-3.2-3.2v-21
		C165.9,36.7,167.4,35.2,169.2,35.2z"/>
	<polygon class="st11" points="175.2,42.5 177.3,45.9 173.7,49.3 179.8,49.3 180.4,48 177,48 179.1,45.9 177.9,43.9 183.4,43.9 
		178.6,55.5 180.2,55.5 185.7,42.5 	"/>
	<path class="st12" d="M264.1,94.2L209,86.9l-3.9,29.4l55.1,7.3L264.1,94.2z"/>
	<path class="st13" d="M264.1,94.2L209,86.9l-3.9,29.4l55.1,7.3L264.1,94.2z M259.1,114.1c-4-0.5-7.7,2-8.9,5.8l-34.6-4.6
		c0-4-3-7.4-7-7.9l1.5-11c4,0.5,7.8-2,8.9-5.8l34.6,4.6c0.1,4,3,7.4,7,7.9L259.1,114.1z"/>
	<circle class="st13" cx="234.6" cy="105.3" r="4.9"/>
	<circle class="st0" cx="210.3" cy="102" r="10.3"/>
	<line class="st14" x1="200.1" y1="100.6" x2="195.1" y2="99.9"/>
	<line class="st14" x1="200.7" y1="105.9" x2="197.2" y2="107.3"/>
	<line class="st14" x1="202.1" y1="95.7" x2="199.1" y2="93.4"/>
	<circle class="st0" cx="258.7" cy="108.7" r="10.3"/>
	<line class="st14" x1="268.9" y1="110.1" x2="273.9" y2="110.8"/>
	<line class="st14" x1="268.3" y1="104.8" x2="271.8" y2="103.4"/>
	<line class="st14" x1="266.9" y1="115" x2="269.9" y2="117.3"/>
	<circle class="st6" cx="249.8" cy="122.3" r="1.3"/>
	<polygon class="st12" points="142.3,75.8 133.3,86.4 129.4,78.5 138.4,68 	"/>
	
		<linearGradient id="SVGID_5_" gradientUnits="userSpaceOnUse" x1="119.14" y1="97.29" x2="134.82" y2="97.29" gradientTransform="matrix(1 0 0 -1 0 198)">
		<stop  offset="0" style="stop-color:#2ED06E;stop-opacity:0.1"/>
		<stop  offset="1" style="stop-color:#2ED06E"/>
	</linearGradient>
	<path class="st15" d="M119.6,122.9c-0.3-2.3-0.4-4.7-0.4-7c0-13.7,4.9-27,13.9-37.4l1.8,1.5c-8.6,10-13.3,22.7-13.3,35.9
		c0,2.2,0.1,4.5,0.4,6.7L119.6,122.9z"/>
	<circle class="st4" cx="139.2" cy="132.8" r="21"/>
	<g>
		<defs>
			<circle id="SVGID_6_" cx="139.2" cy="132.8" r="21"/>
		</defs>
		<clipPath id="SVGID_7_">
			<use xlink:href="#SVGID_6_"  style="overflow:visible;"/>
		</clipPath>
		<g class="st16">
			<path class="st17" d="M138.3,128.4c0.8-0.1,4.2-0.7,4.3-2.1c0.2-1.8-1.9-2.7-3.5-2.7c-2.7,0.1-5.1,1.9-5.8,4.5
				c-1.6,6.5,7.5,14.5,11.7,15.1c3.1,0.4,6.1-5.8,5.5-7.3c-1.3-3.1-8.9-1-9.1-4.8c-0.5,1.1-1.6,1.7-2.8,1.8c-1.6,0-3.1-1.8-2.6-3.1
				C136.2,128.9,137.4,128.5,138.3,128.4z"/>
			<path class="st18" d="M138.4,125.8h0.2c1.6,0,2.9,1.3,2.9,2.9v1.1c0,1.6-1.3,2.9-2.9,2.9h-0.2c-1.6,0-2.9-1.3-2.9-2.9v-1.1
				C135.4,127.1,136.8,125.8,138.4,125.8z"/>
			<path class="st19" d="M139,123.5c-2.5,0-5.4,1.8-6,4.4c-0.5,1.9-0.4,3.8,0.1,5.7c0.9,2.4,2.6,4.4,4.8,5.7c-0.8-1.4-1.5-2.9-2-4.5
				c-0.2-1.7-0.2-3.4,0.1-5.1c0.5-0.8,1.3-1.3,2.2-1.4c0.8-0.1,4.2-0.7,4.3-2.1C142.8,124.5,140.6,123.5,139,123.5z"/>
			<path class="st20" d="M135.7,137.2v-2.7l2,0.2c0.5,0,0.9,0,1.4,0l2-0.2v2.7"/>
			<circle class="st18" cx="123.3" cy="123.9" r="1.2"/>
			<linearGradient id="SVGID_8_" gradientUnits="userSpaceOnUse" x1="122.7991" y1="134.3781" x2="136.97" y2="134.3781">
				<stop  offset="0" style="stop-color:#FF9205"/>
				<stop  offset="1" style="stop-color:#FF7205"/>
			</linearGradient>
			<path class="st21" d="M134.3,134.5c-0.9-0.1-1.8-0.2-2.7-0.5c-2.5-0.9-4.6-2.8-5.8-5.3c-0.5-1-0.9-2-1.3-2.6l-1.8,0.4
				c-0.2,0.5,1.3,5.9,3.3,8.2c1.6,1.8,5.6,4.2,5.8,7.8c0.1,1.3,3.6-3.9,5.1-5.1"/>
			<path class="st22" d="M125.9,122.9l-4.9,1.6c-0.4,0.1-0.9-0.1-1.1-0.6l-3-9.5c-0.1-0.4,0.1-0.9,0.6-1.1l4.9-1.6
				c0.4-0.1,0.9,0.1,1.1,0.6l3,9.5C126.6,122.3,126.3,122.7,125.9,122.9z"/>
			<circle class="st23" cx="122.8" cy="122" r="0.8"/>
			
				<rect x="119" y="113.3" transform="matrix(0.9529 -0.3034 0.3034 0.9529 -28.8479 41.8555)" class="st23" width="2.6" height="0.9"/>
		</g>
	</g>
	
		<linearGradient id="SVGID_9_" gradientUnits="userSpaceOnUse" x1="119.14" y1="100.79" x2="134.82" y2="100.79" gradientTransform="matrix(1 0 0 -1 0 198)">
		<stop  offset="0" style="stop-color:#2ED06E;stop-opacity:0.1"/>
		<stop  offset="1" style="stop-color:#2ED06E"/>
	</linearGradient>
	<path class="st24" d="M121.5,115.9h-2.4c0-13.7,4.9-27,13.9-37.4l1.8,1.5C126.2,90,121.5,102.7,121.5,115.9z"/>
	<path class="st25" d="M125.9,122.9l-4.9,1.6c-0.4,0.1-0.9-0.1-1.1-0.6l-3-9.5c-0.1-0.4,0.1-0.9,0.6-1.1l4.9-1.6
		c0.4-0.1,0.9,0.1,1.1,0.6l3,9.5C126.6,122.3,126.3,122.7,125.9,122.9z"/>
	<circle class="st7" cx="122.8" cy="122" r="0.8"/>
	
		<rect x="119" y="113.3" transform="matrix(0.9529 -0.3034 0.3034 0.9529 -28.8479 41.8555)" class="st7" width="2.6" height="0.9"/>
	<linearGradient id="SVGID_10_" gradientUnits="userSpaceOnUse" x1="130.42" y1="144.0922" x2="150.07" y2="144.0922">
		<stop  offset="0" style="stop-color:#FF9205"/>
		<stop  offset="1" style="stop-color:#FF7205"/>
	</linearGradient>
	<path class="st26" d="M140.8,134.4L140.8,134.4c-0.2,0-0.4,0.1-0.4,0.2l-1.4,2.1c-0.1,0.2-0.4,0.3-0.7,0.2c-0.1,0-0.1-0.1-0.2-0.2
		l-1.4-2c-0.1-0.1-0.3-0.2-0.4-0.2h-2.5l-2.4,5.9c0.4,2.1,0.6,4.2,0.5,6.4c-0.1,1.8-0.7,3.5-1.6,5.1c4.6,2.1,9.9,2.5,14.8,1
		c-0.5-3.6-0.7-7.3-0.6-11l0,0c0.6-2.8,2.2,1.5,2.1,3.7c-0.2,2.3-0.5,4.7-0.9,7c1-0.4,2-0.8,3-1.3c0.7-2.1,1.1-4.3,1.2-6.5
		c0-3-1.8-8.3-3.3-9.6C145.8,134.4,142.7,134.4,140.8,134.4z"/>
	
		<linearGradient id="SVGID_11_" gradientUnits="userSpaceOnUse" x1="-10753.6602" y1="4507.1299" x2="-10753.6602" y2="4503.0898" gradientTransform="matrix(-1 0 0 1 -10573.6904 -4329.04)">
		<stop  offset="0" style="stop-color:#000000;stop-opacity:0"/>
		<stop  offset="1" style="stop-color:#000000;stop-opacity:0.2"/>
	</linearGradient>
	<ellipse class="st27" cx="180" cy="176.1" rx="20.2" ry="2"/>
</g>
</svg>
