<?xml version="1.0" encoding="utf-8"?>
<!-- Generator: Adobe Illustrator 24.2.3, SVG Export Plug-In . SVG Version: 6.00 Build 0)  -->
<svg version="1.1" id="Layer_1" xmlns="http://www.w3.org/2000/svg" xmlns:xlink="http://www.w3.org/1999/xlink" x="0px" y="0px"
	 viewBox="0 0 360 196" style="enable-background:new 0 0 360 196;" xml:space="preserve">
<style type="text/css">
	.st0{fill:none;}
	.st1{fill:url(#SVGID_1_);}
	.st2{opacity:0.49;fill:url(#SVGID_2_);}
	.st3{fill:url(#SVGID_3_);}
	.st4{fill:#FFD2A6;}
	.st5{fill:#5D7077;}
	.st6{fill:#845739;}
	.st7{fill:#253655;}
	.st8{fill:url(#SVGID_4_);}
	.st9{fill:#FF9205;}
	.st10{fill:#FFFFFF;}
	.st11{fill:#2ED06E;}
	.st12{fill:url(#SVGID_5_);}
	.st13{clip-path:url(#SVGID_7_);}
	.st14{fill:#2F4367;}
	.st15{fill:#C58F62;}
	.st16{fill:#38527D;}
	.st17{fill:#FFFEFE;}
	.st18{fill:url(#SVGID_8_);}
	.st19{fill:#829CA9;}
	.st20{opacity:0.2;enable-background:new    ;}
	.st21{fill:url(#SVGID_9_);}
	.st22{fill:#849DA9;}
	.st23{fill:url(#SVGID_10_);}
</style>
<path id="frames" class="st0" d="M0,0h360v196H0V0z"/>
<g id="Layer_1_1_">
	
		<linearGradient id="SVGID_1_" gradientUnits="userSpaceOnUse" x1="162.0244" y1="40.8896" x2="197.7244" y2="125.1896" gradientTransform="matrix(1 0 0 -1 0 198)">
		<stop  offset="0" style="stop-color:#E2E6E8;stop-opacity:0.1"/>
		<stop  offset="1" style="stop-color:#E2E6E8"/>
	</linearGradient>
	<circle class="st1" cx="179.9" cy="114.9" r="45.7"/>
	<linearGradient id="SVGID_2_" gradientUnits="userSpaceOnUse" x1="134.0844" y1="113.15" x2="225.6" y2="113.15">
		<stop  offset="0" style="stop-color:#FF9205"/>
		<stop  offset="1" style="stop-color:#FF7205"/>
	</linearGradient>
	<path class="st2" d="M223,128.4l-0.9-0.3h-19c-0.3,0-0.5,0.1-0.7,0.3l-9,9c-0.2,0.2-0.3,0.5-0.3,0.8v1c0,0.3,0.1,0.7,0.3,0.9
		l9.8,9.7c0.4,0.4,0.5,1.1,0,1.6c0,0,0,0,0,0l-5.2,5.2c-0.2,0.1-0.3,0.3-0.4,0.5c12.1-5.1,21.4-15.1,25.6-27.5
		C223.4,129.2,223.2,128.7,223,128.4L223,128.4z M174.8,75.6v5.1c0,1.5-1.3,2.8-2.8,2.8l0,0c-1.6,0.1-2.8,1.3-2.8,2.9V91
		c0,1.6-1.3,2.9-2.9,2.9c0,0-0.1,0-0.1,0c-1.5,0-2.8,1.3-2.8,2.8v0c-0.1,1.5,1.2,2.8,2.7,2.9c0,0,0.1,0,0.1,0h1.9
		c0.4,0,0.7,0.1,1,0.4l19.3,18.7c0.5,0.5,1.3,0.8,2,0.8h32.3c1.5,0.1,2.8-1.2,2.9-2.7c0,0,0,0,0,0v-2c0-24.7-19.7-44.9-44.4-45.6
		c-0.7,0-1.5,0.3-2,0.8l-3.6,3.5C175.1,74,174.8,74.8,174.8,75.6L174.8,75.6z M164.4,152.6v-30.4c0-1.9-1.6-3.5-3.5-3.6h-1.2
		c-1.9,0.1-3.5-1.5-3.6-3.4c0,0,0-0.1,0-0.1v-2.4c0-1.9-1.6-3.5-3.5-3.5c0,0-0.1,0-0.1,0h-5.4c-1,0-1.9-0.3-2.6-1l-3.6-3.6
		c-0.7-0.7-1.6-1-2.5-1c-1.7,0-3.1,1.2-3.5,2.8c-3.8,20.1,6.1,40.3,24.4,49.5c1.8,0.8,3.9,0,4.8-1.8
		C164.3,153.6,164.4,153.1,164.4,152.6L164.4,152.6z"/>
	
		<linearGradient id="SVGID_3_" gradientUnits="userSpaceOnUse" x1="-9993.5996" y1="4507.1001" x2="-9993.5996" y2="4503.1001" gradientTransform="matrix(-1 0 0 1 -9813.5996 -4329)">
		<stop  offset="0" style="stop-color:#000000;stop-opacity:0"/>
		<stop  offset="1" style="stop-color:#000000;stop-opacity:0.2"/>
	</linearGradient>
	<ellipse class="st3" cx="180" cy="176.1" rx="20.2" ry="2"/>
	<circle class="st4" cx="229.8" cy="131.9" r="21"/>
	<path class="st5" d="M243.8,132.3c0.5,0.4,3.8,6.3,0.5,5.2c-1-0.3-1.8-0.8-2.4-1.6c-0.2-0.3-0.4-0.7-0.4-1.1c0-0.3,0-0.6,0.1-0.9
		l0.3-1.2C242.2,131.7,242.7,131.6,243.8,132.3L243.8,132.3z M215.1,140.2c0.3,0.4,0.6,0.8,0.9,1.3c0.1,0.2,0.2,0.5,0.3,0.7
		c0.2,0.5,0.1,1,0.5,1.4c0.1,0.1,0.1,0.1,0.2,0.2h0.2c0.3-0.5,0.4-1,0.3-1.6c0.1-0.7,0-1.4-0.2-2c-0.3-0.5-0.7-0.8-1.2-1
		c-0.3-0.1-0.5-0.2-0.8-0.2h-0.4c0,0-0.3-0.2-0.3,0l0.1,0.6C214.8,139.8,214.9,140,215.1,140.2z"/>
	<path class="st6" d="M229.5,134.6L229.5,134.6c-2.5-0.3-4.2-2.4-3.9-4.7l0-0.1c0.3-2.4,2.4-4.1,4.7-3.8l0.1,0
		c2.4,0.3,4.1,2.4,3.8,4.7l0,0.1C234,133.1,231.9,134.8,229.5,134.6z"/>
	<path class="st7" d="M225.3,127.8c-0.7-1.1,0.3-5,2.4-4.9c1.2,0,0.9,1.4,1.7,1.6s1.2-0.7,2.3-0.4s0.8,1.6,1.4,1.7s1-1,2-0.7
		c1.8,0.5,1.5,4.5,0.5,6.1c-0.8,1.1-1.8,2-3,2.6c-0.3,0,0.7-1.6-0.2-2c-0.6-0.3-0.9,0.3-1,0s0.8-1,0-2s-2.7,0.2-4-0.2
		C226.5,129.2,225.8,128.6,225.3,127.8L225.3,127.8z"/>
	<path class="st6" d="M244.2,137.2l-2.3-3.8c1.8-1.3,3.2-3,4.2-5l2.2-5.7c0.5,0.6,1.2,1,2,1c-0.4,9.2-5.7,13.2-6.2,13.5H244.2z
		 M230.3,139.3c1.8-0.1,3.2-1.5,3.3-3.3c-1.1,0.2-2.2,0.3-3.3,0.3c-1.1,0-2.3-0.1-3.4-0.3c0,1.8,1.5,3.3,3.3,3.3
		C230.2,139.3,230.3,139.3,230.3,139.3z M216.4,138.1l2.5,3.6c-0.3,0.2-1.8,1.5-2.3,1.7c-0.5,0.2-0.7,0.8-0.5,1.3
		c0,0.1,0.1,0.2,0.2,0.3l2.8,3.4c-1.2,0.6-1.1,1.5-1.1,1.5s-5.9-3-6-6.6C212,141,214.8,139.4,216.4,138.1L216.4,138.1z"/>
	<linearGradient id="SVGID_4_" gradientUnits="userSpaceOnUse" x1="214.5891" y1="142.4123" x2="245.6" y2="142.4123">
		<stop  offset="0" style="stop-color:#FF9205"/>
		<stop  offset="1" style="stop-color:#FF7205"/>
	</linearGradient>
	<path class="st8" d="M245.6,137.3c-1-0.3-1.9-1-2.4-1.9c-0.5-0.9-0.8-2-0.8-3v-0.5l-3.7,2.6c0,0-1.3,1-5,1c0,0,0,0.1,0,0.1
		c-0.3,1.9-2.1,3.1-3.9,2.8c-1.4-0.2-2.5-1.4-2.8-2.8l-5-0.3c-2.3,0-4.5,0.8-6.2,2.4c-0.7,0.6-1.3,1.1-1.2,1.2
		c2.1,0.7,3.2,2.9,2.5,5c1-0.8,2.5-1.2,3.1,0.3c0.9,2,0.7,4.3-0.6,6c5.6,3.2,12.3,3.6,18.2,1.2c1.1-0.5,2.2-1.1,3.2-1.7
		c0-0.1-0.7-6.2,0.4-8.3c0.6-1.2,3.5-3.1,4.2-4V137.3z"/>
	<circle class="st6" cx="219.7" cy="150.3" r="1.3"/>
	<path class="st9" d="M169.3,35.2h21.1c1.8,0,3.2,1.4,3.2,3.2v21.1c0,1.8-1.4,3.2-3.2,3.2h-21.1c-1.8,0-3.2-1.4-3.2-3.2V38.4
		C166.1,36.6,167.5,35.2,169.3,35.2z"/>
	<path class="st10" d="M175.4,42.5l2,3.4l-3.6,3.4h6.2l0.6-1.3h-3.4l2-2l-1.2-2.1h5.6l-4.9,11.6h1.7l5.5-13L175.4,42.5L175.4,42.5z"
		/>
	<circle class="st6" cx="249.9" cy="121.3" r="1.3"/>
	<path class="st11" d="M142.5,74.9l-9,10.5l-4-7.9l9-10.5L142.5,74.9z"/>
	
		<linearGradient id="SVGID_5_" gradientUnits="userSpaceOnUse" x1="119.2997" y1="98.25" x2="135" y2="98.25" gradientTransform="matrix(1 0 0 -1 0 198)">
		<stop  offset="0" style="stop-color:#2ED06E;stop-opacity:0.1"/>
		<stop  offset="1" style="stop-color:#2ED06E"/>
	</linearGradient>
	<path class="st12" d="M119.7,122c-0.3-2.3-0.4-4.7-0.4-7c0-13.8,4.9-27.1,13.9-37.5L135,79c-8.6,10-13.3,22.7-13.3,35.9
		c0,2.2,0.1,4.5,0.4,6.7L119.7,122z"/>
	<circle class="st4" cx="139.4" cy="131.8" r="21"/>
	<g>
		<defs>
			<circle id="SVGID_6_" cx="139.4" cy="131.8" r="21"/>
		</defs>
		<clipPath id="SVGID_7_">
			<use xlink:href="#SVGID_6_"  style="overflow:visible;"/>
		</clipPath>
		<g class="st13">
			<path class="st14" d="M138.4,127.4c0.8-0.1,4.2-0.7,4.3-2.1c0.2-1.8-2-2.7-3.5-2.7c-2.7,0.1-5.1,1.9-5.8,4.5
				c-1.6,6.5,7.5,14.5,11.7,15c3.1,0.5,6.1-5.7,5.5-7.2c-1.4-3.1-8.9-1-9.2-4.9c-0.5,1.1-1.6,1.8-2.8,1.8c-1.6,0-3.1-1.7-2.6-3
				C136.4,127.8,137.6,127.5,138.4,127.4L138.4,127.4z"/>
			<path class="st15" d="M138.5,124.8h0.3c1.6,0,2.9,1.3,2.9,2.9v1.2c0,1.6-1.3,2.9-2.9,2.9h-0.3c-1.6,0-2.9-1.3-2.9-2.9v-1.2
				C135.6,126.1,136.9,124.8,138.5,124.8z"/>
			<path class="st16" d="M139.2,122.5c-2.5,0-5.4,1.8-6,4.5c-0.5,1.9-0.5,3.8,0,5.7c1,2.4,2.7,4.4,4.9,5.7c-0.8-1.5-1.5-3-2-4.6
				c-0.2-1.7-0.2-3.3,0.1-5c0.4-0.8,1.3-1.3,2.2-1.4c0.9-0.2,4.2-0.7,4.3-2.1C142.9,123.5,140.7,122.5,139.2,122.5L139.2,122.5z"/>
			<path class="st17" d="M135.9,136.2v-2.7l2,0.2c0.4,0,0.9,0,1.3,0l2-0.2v2.7"/>
			<circle class="st15" cx="123.4" cy="123" r="1.2"/>
			<linearGradient id="SVGID_8_" gradientUnits="userSpaceOnUse" x1="122.981" y1="133.4019" x2="137.1" y2="133.4019">
				<stop  offset="0" style="stop-color:#FF9205"/>
				<stop  offset="1" style="stop-color:#FF7205"/>
			</linearGradient>
			<path class="st18" d="M134.4,133.5c-0.9-0.1-1.8-0.2-2.6-0.5c-2.6-0.9-4.6-2.8-5.8-5.3l-1.3-2.6l-1.7,0.4c-0.2,0.5,1.2,6,3.2,8.2
				c1.7,1.8,5.6,4.2,5.8,7.8c0.1,1.3,3.6-4,5.1-5.1"/>
			<path class="st19" d="M126,121.8l-5,1.6c-0.4,0.1-0.9-0.1-1-0.5l-3.1-9.6c-0.1-0.4,0.1-0.9,0.5-1l5-1.6c0.4-0.1,0.9,0.1,1,0.5
				l3.1,9.6C126.7,121.3,126.5,121.7,126,121.8z"/>
			<circle class="st20" cx="123" cy="121" r="0.8"/>
			<path class="st20" d="M119,112.8l2.5-0.8l0.3,0.9l-2.5,0.8L119,112.8z"/>
		</g>
	</g>
	
		<linearGradient id="SVGID_9_" gradientUnits="userSpaceOnUse" x1="119.3" y1="101.75" x2="135" y2="101.75" gradientTransform="matrix(1 0 0 -1 0 198)">
		<stop  offset="0" style="stop-color:#2ED06E;stop-opacity:0.1"/>
		<stop  offset="1" style="stop-color:#2ED06E"/>
	</linearGradient>
	<path class="st21" d="M121.7,115h-2.4c0-13.8,4.9-27.1,13.9-37.5L135,79C126.4,89,121.7,101.8,121.7,115z"/>
	<path class="st22" d="M126,121.8l-5,1.6c-0.4,0.1-0.9-0.1-1-0.5l-3.1-9.6c-0.1-0.4,0.1-0.9,0.5-1l5-1.6c0.4-0.1,0.9,0.1,1,0.5
		l3.1,9.6C126.7,121.3,126.5,121.7,126,121.8z"/>
	<circle class="st7" cx="123" cy="121" r="0.8"/>
	<path class="st7" d="M119,112.8l2.5-0.8l0.3,0.9l-2.5,0.8L119,112.8z"/>
	<linearGradient id="SVGID_10_" gradientUnits="userSpaceOnUse" x1="130.6" y1="143.1263" x2="150.2" y2="143.1263">
		<stop  offset="0" style="stop-color:#FF9205"/>
		<stop  offset="1" style="stop-color:#FF7205"/>
	</linearGradient>
	<path class="st23" d="M141,133.5c-0.2,0-0.3,0.1-0.4,0.2l-1.4,2c-0.2,0.2-0.5,0.3-0.7,0.1c0,0-0.1-0.1-0.1-0.1l-1.4-2
		c-0.1-0.2-0.3-0.2-0.5-0.2H134l-2.3,6c0.4,2.1,0.6,4.2,0.5,6.3c-0.2,1.8-0.7,3.5-1.6,5c2.7,1.3,5.7,2,8.7,2c2,0,4.1-0.4,6-1
		c-0.5-3.6-0.6-7.3-0.5-11c0.6-2.7,2.2,1.6,2.1,3.7c-0.2,2.3-0.5,4.7-0.9,7c1-0.4,2-0.8,3-1.3c0.6-2.1,1-4.2,1.2-6.4
		c0-3-1.7-8.3-3.2-9.7C146,133.4,142.8,133.4,141,133.5z"/>
</g>
</svg>
