<?xml version="1.0" encoding="utf-8"?>
<!-- Generator: Adobe Illustrator 24.2.3, SVG Export Plug-In . SVG Version: 6.00 Build 0)  -->
<svg version="1.1" id="Layer_1" xmlns="http://www.w3.org/2000/svg" xmlns:xlink="http://www.w3.org/1999/xlink" x="0px" y="0px"
	 viewBox="0 0 360 196" style="enable-background:new 0 0 360 196;" xml:space="preserve">
<style type="text/css">
	.st0{fill:none;}
	.st1{fill:url(#SVGID_1_);}
	.st2{fill:#D3D5D8;}
	.st3{fill:#F2F5F7;}
	.st4{fill:#FFFFFF;}
	.st5{fill:#FF9205;}
	.st6{fill:none;stroke:#FF9205;stroke-width:1.59;stroke-miterlimit:10;}
	.st7{fill:url(#SVGID_2_);}
	.st8{fill:#253655;}
	.st9{fill:#1AA6DD;}
	.st10{fill:#845739;}
	.st11{fill:url(#SVGID_3_);}
	.st12{fill:#66432F;}
	.st13{fill:url(#SVGID_4_);}
	.st14{fill:url(#SVGID_5_);}
	.st15{fill:url(#SVGID_6_);}
	.st16{fill:url(#SVGID_7_);}
	.st17{fill:#5D7079;}
	.st18{fill:#C58F62;}
	.st19{fill:url(#SVGID_8_);}
	.st20{fill:url(#SVGID_9_);}
	.st21{fill:url(#SVGID_10_);}
	.st22{clip-path:url(#SVGID_12_);}
	.st23{fill:url(#SVGID_13_);}
</style>
<path id="frames" class="st0" d="M0,0h360v196H0V0z"/>
<g id="Layer_1_1_">
	
		<linearGradient id="SVGID_1_" gradientUnits="userSpaceOnUse" x1="157.3885" y1="45.8652" x2="206.0481" y2="160.4841" gradientTransform="matrix(1 0 0 -1 0 198)">
		<stop  offset="0" style="stop-color:#E2E6E8;stop-opacity:0.1"/>
		<stop  offset="1" style="stop-color:#E2E6E8"/>
	</linearGradient>
	<path class="st1" d="M120.4,53.3h122.3c1.5,0,2.6,1.2,2.6,2.7v79.4H117.7V55.9C117.7,54.5,118.9,53.3,120.4,53.3
		C120.4,53.3,120.4,53.3,120.4,53.3z"/>
	<circle class="st2" cx="121.7" cy="57.3" r="1.6"/>
	<circle class="st2" cx="126.5" cy="57.3" r="1.6"/>
	<circle class="st2" cx="131.3" cy="57.3" r="1.6"/>
	<path class="st3" d="M145.9,76.6h47.9v11.6h-47.9L145.9,76.6z"/>
	<path class="st2" d="M193.8,76.6h23.3v11.6h-23.3V76.6z"/>
	<path class="st4" d="M145.9,100.3h47.9V112h-47.9L145.9,100.3z"/>
	<path class="st5" d="M151.8,104.2l-1.5,4h25.2l1.5-4H151.8z"/>
	<path class="st5" d="M193.8,100.3h23.3V112h-23.3V100.3z"/>
	<path class="st2" d="M149.5,88.3h1.2v11.8h-1.2V88.3z M167.3,93h-14.2v-1.2h14.6L167.3,93z M167.7,95.4h-14.6v1.2h26l0.4-1.2H167.7
		L167.7,95.4z"/>
	<circle class="st0" cx="212" cy="106.3" r="12"/>
	<path class="st6" d="M224,106.3h6 M222.5,100.4l3.8-2.2 M222.5,112.3l3.8,2.2"/>
	<circle class="st0" cx="150.6" cy="106.3" r="12"/>
	<path class="st6" d="M138.7,106.3h-6 M140.1,112.3l-3.8,2.2 M140.1,100.4l-3.8-2.2"/>
	
		<linearGradient id="SVGID_2_" gradientUnits="userSpaceOnUse" x1="6252.25" y1="42.78" x2="6275.29" y2="42.78" gradientTransform="matrix(1 0 0 -1 -6163 198)">
		<stop  offset="0" style="stop-color:#000000;stop-opacity:0"/>
		<stop  offset="0.15" style="stop-color:#000000;stop-opacity:5.000000e-02"/>
		<stop  offset="1" style="stop-color:#000000;stop-opacity:0.1"/>
	</linearGradient>
	<path class="st7" d="M89.5,153.9c8.3,0.9,22.8,0.7,22.8,2.6h-23"/>
	<path class="st8" d="M84.4,88.6L84.4,88.6c-0.1,0-0.3,0-0.3-0.1l-4.3-12.1c0-0.1,0-0.3,0.2-0.3l0,0c0.1,0,0.3,0,0.3,0.2l4.3,12.1
		C84.6,88.4,84.6,88.5,84.4,88.6z"/>
	<path class="st5" d="M81.6,81.6l1.6-0.2c2.7-0.3,5.4-1.2,7.7-2.7l1.4-0.9l-2.9-1.8l0.6-3.7l-1,0.6c-2.3,1.5-5,2.4-7.7,2.7L79.6,76
		L81.6,81.6z"/>
	<ellipse transform="matrix(0.9338 -0.3577 0.3577 0.9338 -27.312 41.937)" class="st9" cx="99.7" cy="94.8" rx="0.5" ry="0.2"/>
	<path class="st10" d="M111.2,155.9l-0.9,0l-0.2-3.8l1.3-0.8L111.2,155.9z"/>
	<linearGradient id="SVGID_3_" gradientUnits="userSpaceOnUse" x1="106.41" y1="135.395" x2="114.1229" y2="135.395">
		<stop  offset="0" style="stop-color:#FF9205"/>
		<stop  offset="1" style="stop-color:#FF7205"/>
	</linearGradient>
	<path class="st11" d="M106.4,119.3c0.2,7.5,4,13.5,3.2,20c-0.5,4.5,0.1,14.1,0.1,14.1c0.3,0.1,0.7,0.2,1,0.2c0.3,0,0.5-0.1,0.8-0.2
		c1.4-4.9,2.2-9.9,2.5-15c0.6-12.7-2.4-21.2-2.4-21.2L106.4,119.3z"/>
	<path class="st9" d="M99.5,108.3c0,0.5-0.5,0.9-1.2,1s-1.4-0.3-1.4-0.7c0-0.7,0.6-1.3,1.3-1.5C98.8,107.1,99.4,107.6,99.5,108.3z"
		/>
	<path class="st10" d="M98.6,100.3c1.5,0.3,3.1,0.3,4.7,0.1c1.5-0.2,2.9-0.5,4.3-1l3.9,5.9l-0.5,6.5l-10.7,1.2l-4-7.2L98.6,100.3z
		 M85.7,90.1c-0.3-0.4-0.9-0.6-1.3-0.3s-0.6,0.9-0.3,1.3s0.9,0.6,1.3,0.3c0.1-0.1,0.2-0.2,0.3-0.3C85.9,90.8,85.9,90.4,85.7,90.1z"
		/>
	<path class="st10" d="M98.2,102.7c0.6-0.8,1.3-1.5,2.1-2c-2-0.7-6.1-1-8.3-2.8c-2.2-1.9-4.1-4.1-5.6-6.6c-0.1,0.3-0.3,0.5-0.5,0.7
		c-0.2,0.1-0.4,0.2-0.6,0.3c0,0,4.2,6.8,5.6,8.6c1.4,2.1,3,4,4.8,5.8c0.5,0.4,2.6,2.6,2.7,2.4C98.8,108.1,97.9,103.3,98.2,102.7z"/>
	<path class="st9" d="M103.6,93.3c0.1,0.2,0.4,0.2,0.6,0.1c0.2-0.2,0.3-0.4,0.4-0.7c0-0.1-0.3,0-0.6,0.2S103.5,93.2,103.6,93.3z"/>
	<path class="st10" d="M101.2,92.2c1.3-0.5,2.8,0.2,3.3,1.5l0.7,1.9c0.5,1.3-0.2,2.9-1.5,3.4l0,0c-1.3,0.5-2.8-0.2-3.3-1.5l-0.7-2
		C99.2,94.2,99.8,92.7,101.2,92.2C101.2,92.2,101.2,92.2,101.2,92.2z"/>
	<path class="st12" d="M101.4,96.9L101.4,96.9L101.4,96.9z M104.5,93.7c-0.5-1.3-2-2-3.3-1.5c-1.3,0.5-2,2-1.5,3.3l0.8,2.2
		c0.1,0.2,0.2,0.5,0.4,0.7v-0.1l0.2-0.3l0.1-0.2c0-0.1,0.1-0.1,0.1-0.2v-0.2c0-0.1,0-0.1,0-0.2v-0.4c0-0.1,0-0.2,0-0.3
		c0-0.1,0-0.2,0-0.3c0-0.1,0-0.2,0-0.2V96c0,0,0-0.1,0-0.1c0-0.1,0-0.1,0-0.2v-0.1c0,0,0-0.1,0.1-0.1c0.1-0.1,0.2-0.3,0.3-0.4
		l0.1-0.1l0.1-0.1l0.3-0.2h0.3l0.3-0.1l0.3-0.1l0.3-0.1l0.3-0.1c0.1,0,0.2,0,0.3-0.1c0.1,0,0.2-0.1,0.3-0.1l0.2-0.1l0.2-0.1
		c0,0,0.1,0,0.1-0.1L104.5,93.7z"/>
	<path class="st5" d="M99.2,95l0.4,1c1-0.2,2-0.4,2.9-0.8c0.8-0.4,1.6-0.8,2.3-1.4c-0.5-0.7-0.3-1.1-0.4-1c-0.7,0.5-1.5,1-2.3,1.3
		C101,94.4,99.2,95,99.2,95z"/>
	<path class="st10" d="M118.5,87.1c0.2-0.5,0.7-0.7,1.2-0.6c0.5,0.2,0.7,0.7,0.6,1.2c-0.2,0.5-0.7,0.7-1.2,0.6
		c-0.1,0-0.2-0.1-0.3-0.2C118.5,87.9,118.4,87.5,118.5,87.1z M109,101.7c-0.5-0.6-2.8-2.2-2.6-1.8c1.8-1,5.9-1.9,7.7-4
		c1.7-2.2,3.1-4.7,4.1-7.3c0.2,0.2,0.4,0.4,0.6,0.6c0.2,0.1,0.4,0.1,0.7,0.2c-1.1,3.1-2.3,6.2-3.7,9.2c-0.9,1.5-2.5,5.1-4.3,6.9
		C110.9,105.9,109.5,102.4,109,101.7z"/>
	<circle class="st10" cx="108.6" cy="103.1" r="3.7"/>
	<linearGradient id="SVGID_4_" gradientUnits="userSpaceOnUse" x1="103.69" y1="119.26" x2="112.07" y2="119.26">
		<stop  offset="0" style="stop-color:#FF9205"/>
		<stop  offset="1" style="stop-color:#FF7205"/>
	</linearGradient>
	<ellipse class="st13" cx="107.9" cy="119.3" rx="4.2" ry="4.6"/>
	<path class="st10" d="M97.1,156.2l-0.8-0.3l1.2-3.6l1.5-0.3C98.9,152.1,97.1,156.2,97.1,156.2z"/>
	<linearGradient id="SVGID_5_" gradientUnits="userSpaceOnUse" x1="96.86" y1="135.3519" x2="107.5155" y2="135.3519">
		<stop  offset="0" style="stop-color:#FF9205"/>
		<stop  offset="1" style="stop-color:#FF7205"/>
	</linearGradient>
	<path class="st14" d="M102.1,117.5c-3.2,6.3,1.5,14.4-0.8,20.7c-1.5,4.1-4.4,14.6-4.4,14.6c0.3,0.2,0.6,0.4,0.9,0.6
		c0.3,0,0.5,0,0.8,0c2.9-4.6,5.3-9.4,7.1-14.5c3.7-10.8,0.8-21.5,0.8-21.5L102.1,117.5z"/>
	<linearGradient id="SVGID_6_" gradientUnits="userSpaceOnUse" x1="101.396" y1="120" x2="107.7523" y2="120">
		<stop  offset="0" style="stop-color:#FF9205"/>
		<stop  offset="1" style="stop-color:#FF7205"/>
	</linearGradient>
	<path class="st15" d="M107.7,120c0,2.6,0.4,4.8-2,4.8c-2.6-0.2-4.6-2.6-4.3-5.2c0.2-2.3,2-4.1,4.3-4.3
		C108.1,115.3,107.7,117.4,107.7,120z"/>
	<path class="st5" d="M101.6,118.3c1.5,0.9,3.2,1.3,4.9,1.2c4.3-0.5,4.7-3,4.7-3c0.1-1.6-0.1-2.5,0-4.5l0.3-5.8
		c-1.7,0-3.1-4.9-3.3-7.2c0,0-0.4,0-0.8,0.1c-0.2,0-0.4,0.1-0.6,0.1l-0.7,0.2c0,0,1.8,3.8-0.7,4.1s-4.2-3.6-4.2-3.6h-0.3
		c-0.4,0-0.9,0-1.3,0.1l-0.5,0.1c0.2,2.3,2.6,9.3-2.1,8.4C100,115.7,101.6,117.6,101.6,118.3z M100.8,156.5h-4.6
		c-0.2,0-0.3-0.1-0.3-0.2V155c0-0.1,0.1-0.2,0.3-0.2c1.7,0,3.4,0.5,4.8,1.4c0.1,0,0.1,0.1,0.1,0.2c0,0,0,0,0,0
		C101,156.5,100.9,156.5,100.8,156.5L100.8,156.5z M114.8,156.6h-4.6c-0.1,0-0.3-0.1-0.3-0.2v-1.3c0-0.1,0.1-0.2,0.3-0.2
		c1.7,0,3.4,0.5,4.8,1.4c0.1,0,0.1,0.1,0.1,0.2C115,156.6,114.9,156.6,114.8,156.6L114.8,156.6z"/>
	
		<linearGradient id="SVGID_7_" gradientUnits="userSpaceOnUse" x1="10072.4102" y1="25.66" x2="10095.54" y2="25.66" gradientTransform="matrix(-1 0 0 -1 10354.2803 198)">
		<stop  offset="0" style="stop-color:#000000;stop-opacity:0"/>
		<stop  offset="0.15" style="stop-color:#000000;stop-opacity:5.000000e-02"/>
		<stop  offset="1" style="stop-color:#000000;stop-opacity:0.1"/>
	</linearGradient>
	<path class="st16" d="M281.9,170.8c-8.1,1.1-23.1,0.6-23.1,2.5h4.3l4.4,0.7h14.4"/>
	<path class="st17" d="M272,154.8c-0.1,1.1-3.4,2-7.1,1.6s-7.4-1.6-6.8-3c0.4-1,3.6-1.8,7.4-1.3S272.2,153.7,272,154.8z"/>
	<path class="st8" d="M260.8,148.7l9.2,0.5l-0.2,4.8l-9.2-0.5L260.8,148.7z"/>
	<path class="st18" d="M261.1,168.4l1.5-0.2l0.4,3.5l-1.5,0.2L261.1,168.4z"/>
	<path class="st18" d="M269.4,169.7l1.4-0.4l0.9,3.4l-1.4,0.4L269.4,169.7z"/>
	<linearGradient id="SVGID_8_" gradientUnits="userSpaceOnUse" x1="259.5995" y1="171.4465" x2="265.6852" y2="143.5465">
		<stop  offset="0" style="stop-color:#FF9205"/>
		<stop  offset="1" style="stop-color:#FF7205"/>
	</linearGradient>
	<path class="st19" d="M262.6,169.8c-0.1,0-0.1,0.1-0.2,0.1c-0.5,0.1-1.1,0.1-1.6,0c-0.1,0-0.2-0.1-0.2-0.1
		c-0.1-0.1-0.2-0.2-0.2-0.4c0,0-1.7-5.6-1.8-8.3c0-5,1.5-9.6,1.8-9.7l6.9-1.3c0.3-0.1,0.7,0.1,0.7,0.5c0,0.1,0,0.3-0.1,0.4l-3.6,6.3
		v0.1c-0.7,1.6-1.5,2.9-1.5,4.7c0,2.4,0.2,6.2,0.1,7.2C262.9,169.5,262.8,169.7,262.6,169.8L262.6,169.8z"/>
	<linearGradient id="SVGID_9_" gradientUnits="userSpaceOnUse" x1="263.7121" y1="160.0322" x2="271.149" y2="160.0322">
		<stop  offset="0" style="stop-color:#FF9205"/>
		<stop  offset="1" style="stop-color:#FF7205"/>
	</linearGradient>
	<path class="st20" d="M271,169.9c0,0.1-0.1,0.1-0.2,0.1c-0.5,0.3-1,0.4-1.6,0.4c-0.1,0-0.2,0-0.3-0.1c-0.1-0.1-0.2-0.2-0.3-0.3
		c0,0-3.2-4.9-3.9-7.5c-0.9-3.2-1.2-11.4-1-11.6l6.4-1.4c0.5-0.2,0.6,0.2,0.4,0.7l-1.4,7c0,0,0,0.1,0,0.1c-0.2,1.8-0.6,3.2-0.1,4.9
		c0.7,2.4,1.9,5.9,2,6.9C271.2,169.5,271.1,169.7,271,169.9z"/>
	<path class="st5" d="M265.2,130.4l0.2-1.7l1.2,0.4c0.8,0.3,1.7,0.4,2.5,0.3l1.5-0.1l-0.2,1.7l2.9,0.4l-0.2,7
		c-0.6,2.6-1.5,5.4-1.5,8.1l0.4,8.2c-6.8-0.8-7.3-3.6-7.3-3.6s0.4,1.8-2.9,2.2c-2.5,0.3-3.4-0.5-3.8,0.2c0-0.2,0.1-0.4,0.1-0.6
		c1-3,1.8-6.1,2.4-9.3c0.3-2,0.5-13.7,0.5-13.7L265.2,130.4z"/>
	<path class="st8" d="M258.8,173.3l4.2-0.1c0.1,0,0.3,0,0.3-0.2v-1.3c0-0.1-0.1-0.3-0.2-0.3c-1.6,0-3.1,0.5-4.4,1.4
		c-0.1,0.1-0.1,0.2-0.1,0.3C258.6,173.3,258.7,173.3,258.8,173.3z M267.6,173.9h4.2c0.1,0,0.3-0.1,0.2-0.3c0,0,0,0,0,0v-1.3
		c0-0.1-0.1-0.3-0.2-0.3c0,0,0,0,0,0c-1.6,0-3.1,0.5-4.4,1.4c-0.1,0.1-0.1,0.2,0,0.3C267.4,173.8,267.5,173.9,267.6,173.9z"/>
	<circle class="st18" cx="255.4" cy="118.4" r="1.2"/>
	<linearGradient id="SVGID_10_" gradientUnits="userSpaceOnUse" x1="254.43" y1="129.015" x2="265.21" y2="129.015">
		<stop  offset="0" style="stop-color:#FF9205"/>
		<stop  offset="1" style="stop-color:#FF7205"/>
	</linearGradient>
	<path class="st21" d="M260.9,137.9c0.1-5-2.7-3.3-5.1-9.7c-0.5-1.2-1.3-7.8-1.3-7.8h0.4c0.4,0,0.8,0,1.2-0.2l0.5-0.2
		c0,0,1,5.3,1.9,6.8c1.9,2.9,6.7,3.5,6.7,3.5L260.9,137.9z"/>
	<g>
		<defs>
			<path id="SVGID_11_" d="M264.4,130.4l0.2-1.7l1.3,0.4c0.9,0.3,1.8,0.4,2.8,0.3l1.7-0.1l-0.2,1.7l4.6,0.5l-1.6,6.9
				c-0.6,2.6-1,5.3-1,7.9l-0.2,8.4c-3.4-0.4-7.1-3.5-7.1-3.5s0.9,3.1-8.8,2l3.1-10.7c0.2-0.8,0.2-1.6,0.3-2.4l0.5-10.1L264.4,130.4z
				"/>
		</defs>
		<clipPath id="SVGID_12_">
			<use xlink:href="#SVGID_11_"  style="overflow:visible;"/>
		</clipPath>
		<g class="st22">
			<path class="st17" d="M264.5,152.7c-1.1-3.6-1.5-7.2-0.5-10.6c0.4-1.4,2-7.5,2.4-9c0.4-1.5,0.6-3.1,0.6-4.6h0.6
				c0,1.6-0.2,3.1-0.6,4.7c-0.4,1.5-2,7.6-2.4,9c-1,3.4-0.5,6.9,0.5,10.5L264.5,152.7z"/>
		</g>
	</g>
	<circle class="st18" cx="286.7" cy="126" r="1.2"/>
	<linearGradient id="SVGID_13_" gradientUnits="userSpaceOnUse" x1="270.3683" y1="133.525" x2="286.39" y2="133.525">
		<stop  offset="0" style="stop-color:#FF9205"/>
		<stop  offset="1" style="stop-color:#FF7205"/>
	</linearGradient>
	<path class="st23" d="M272.6,140.3c1.4-5.9,4.2-3.9,8-6.7c2.1-1.6,4-3.5,5.8-5.4c-0.4-0.1-0.7-0.2-1.1-0.5
		c-0.3-0.2-0.6-0.5-0.7-0.9c0,0-3.8,3.2-5.4,3.7c-5.6,1.8-9.5,0.1-8.8,0.6C272.9,132.6,272.6,140.3,272.6,140.3L272.6,140.3z"/>
	<path class="st18" d="M267.3,127.9L267.3,127.9c-1.5-0.8-2.1-2.7-1.3-4.2l0,0c0.8-1.5,2.7-2.1,4.2-1.3l0,0c1.5,0.8,2.1,2.7,1.3,4.2
		l0,0C270.6,128.2,268.8,128.7,267.3,127.9z"/>
	<path class="st8" d="M268.2,126.3l0.2,0.1l0.1-0.4c-0.5-0.2-0.9-0.5-1.1-1l-0.3-0.1c-0.4,0.1-0.8,0.1-1.2-0.1l-0.2,0.4
		c0.4,0.2,0.9,0.3,1.3,0.2C267.4,125.7,267.8,126.1,268.2,126.3z"/>
	
		<ellipse transform="matrix(0.5231 -0.8523 0.8523 0.5231 21.4375 292.0966)" class="st18" cx="271.7" cy="126.9" rx="0.6" ry="0.5"/>
	<path class="st8" d="M267.6,119.9c0.5,0,1,0.1,1.4,0.3c0.9-0.3,2-0.2,2.8,0.3c0.9,0.5,1.7,1.7,1.5,2.6c0.1,0.1,0.2,0.3,0.3,0.4
		c0.3,0.8-1.6,3.6-2.3,3.1c-1.3-0.7-2.5-1.7-3.3-3c-0.6,0-1.2-0.2-1.7-0.5c-0.5-0.4,0.3-1.7,0.8-2.1
		C267.2,120.4,267.4,120,267.6,119.9L267.6,119.9z"/>
</g>
</svg>
