<?xml version="1.0" encoding="utf-8"?>
<!-- Generator: Adobe Illustrator 24.2.3, SVG Export Plug-In . SVG Version: 6.00 Build 0)  -->
<svg version="1.1" id="Layer_1" xmlns="http://www.w3.org/2000/svg" xmlns:xlink="http://www.w3.org/1999/xlink" x="0px" y="0px"
	 viewBox="0 0 360 196" style="enable-background:new 0 0 360 196;" xml:space="preserve">
<style type="text/css">
	.st0{fill:none;}
	.st1{fill:url(#SVGID_1_);}
	.st2{fill:#C58F62;}
	.st3{fill:url(#SVGID_2_);}
	.st4{fill:url(#SVGID_3_);}
	.st5{fill:url(#SVGID_4_);}
	.st6{fill:#6F878F;}
	.st7{fill:#829CA9;}
	.st8{fill:#FCD3B9;}
	.st9{fill:#253655;}
	.st10{fill-rule:evenodd;clip-rule:evenodd;fill:#FFFFFF;}
	.st11{fill-rule:evenodd;clip-rule:evenodd;fill:url(#SVGID_5_);}
	.st12{fill-rule:evenodd;clip-rule:evenodd;fill:url(#SVGID_6_);}
	.st13{fill-rule:evenodd;clip-rule:evenodd;fill:#D2D4D7;}
	.st14{fill:url(#SVGID_7_);}
</style>
<path id="frames" class="st0" d="M0,0h360v196H0V0z"/>
<g id="Layer_1_1_">
	
		<linearGradient id="SVGID_1_" gradientUnits="userSpaceOnUse" x1="15328.0996" y1="31.19" x2="15357.5195" y2="31.19" gradientTransform="matrix(1 0 0 -1 -15204.5898 198)">
		<stop  offset="0" style="stop-color:#000000;stop-opacity:0"/>
		<stop  offset="0.15" style="stop-color:#000000;stop-opacity:5.000000e-02"/>
		<stop  offset="1" style="stop-color:#000000;stop-opacity:0.1"/>
	</linearGradient>
	<path class="st1" d="M123.5,164.6c10.2,1.4,29.4,0.8,29.4,3.2l-9.9,1.2l-19.6-0.1"/>
	<path class="st2" d="M149.1,166.1L147,166l0.3-4.8l2.1,0.1L149.1,166.1z"/>
	<linearGradient id="SVGID_2_" gradientUnits="userSpaceOnUse" x1="143.7759" y1="139.7359" x2="155.2172" y2="139.7359">
		<stop  offset="0" style="stop-color:#FF9205"/>
		<stop  offset="1" style="stop-color:#FF7205"/>
	</linearGradient>
	<path class="st3" d="M154.9,139c-0.7,8-2.2,16-4.4,23.7c-1.2,0.6-2.6,0.4-4.3-0.3c1.6-7.7,0.3-16.1-1.3-24.1
		c-1.5-7.2-1.1-7.8-0.9-13.4c0-1.4,7.1-11,9-7.9c0.7,1.5,1.1,3,1.3,4.6c0.5,2.7,0.8,5.4,0.9,8.2C155.3,132.9,155.2,135.9,154.9,139
		L154.9,139z"/>
	<path class="st2" d="M139.3,167.2l-2.1-0.2l0.4-4.8l2.1,0.2L139.3,167.2z"/>
	<linearGradient id="SVGID_3_" gradientUnits="userSpaceOnUse" x1="136.9186" y1="167.07" x2="153.2646" y2="167.07">
		<stop  offset="0" style="stop-color:#FF9205"/>
		<stop  offset="1" style="stop-color:#FF7205"/>
	</linearGradient>
	<path class="st4" d="M143.4,168.7c0.1-0.1,0-0.3-0.1-0.4c-1.8-1.2-3.9-1.9-6.1-1.9c-0.2,0-0.3,0.2-0.3,0.4c0,0,0,0,0,0v1.8
		c0,0.2,0.1,0.4,0.3,0.4h5.8C143.2,169,143.3,168.9,143.4,168.7L143.4,168.7z M153.2,167.6c0.1-0.1,0-0.3-0.1-0.4
		c-1.8-1.2-3.9-1.9-6.1-1.9c-0.2,0-0.3,0.2-0.3,0.4v1.8c0,0.2,0.1,0.4,0.3,0.4h5.8C153.1,167.8,153.2,167.7,153.2,167.6z"/>
	<linearGradient id="SVGID_4_" gradientUnits="userSpaceOnUse" x1="133.862" y1="140.5419" x2="145.3042" y2="140.5419">
		<stop  offset="0" style="stop-color:#FF9205"/>
		<stop  offset="1" style="stop-color:#FF7205"/>
	</linearGradient>
	<path class="st5" d="M145,139.8c-0.7,8-2.2,16-4.4,23.7c-1.2,0.6-2.6,0.4-4.3-0.3c1.6-7.7,0.3-16.1-1.3-24.1
		c-1.5-7.2-1.1-7.7-0.9-13.4c0-1.4,7.1-11,9-7.9c0.7,1.5,1.1,3,1.3,4.6c0.5,2.7,0.8,5.4,0.9,8.2C145.4,133.7,145.3,136.7,145,139.8z
		"/>
	<path class="st6" d="M157.8,132.7c0,1.7-5.8,2.8-13,2.8s-12.3,0.4-13.3-2.3c-0.1-0.2,0.9-0.6,0.9-0.6c0-1.8,6.1-3.4,12.4-3.4
		C149.4,129.3,153.8,130.5,157.8,132.7L157.8,132.7z"/>
	<path class="st7" d="M136.9,105.5c-2.6,2.3-4.5,4.3-6.9,3.2c-3.2-1.5-3.7-2.5-5.9-5.5c-0.2-0.3-0.3,0.3-1.1,0.9
		c-0.6,0.4-1.4,0.3-1.3,0.5c1.5,4.2,5.5,9.7,9.9,9.7s11.2-1.8,10.6-7.2c-0.1-1.5-1.4-2.8-2.9-2.8
		C138.3,104.5,137.5,104.9,136.9,105.5z M146,105.3c-0.8,1.2-0.6,2.8,0.5,3.8c3,2.6,3.6,4,7.1,8.5s3.5,9.9,3.7,9.8
		c1.6-0.8,3.1,0.4,3.1,0.1c-0.3-4.5-1.1-8.9-2.6-13.1c-1.8-5.1-5.7-9.6-7.8-10.2S146.9,103.9,146,105.3L146,105.3z"/>
	<circle class="st8" cx="121.6" cy="104.1" r="1.6"/>
	<circle class="st8" cx="158.9" cy="127.6" r="1.6"/>
	<path class="st7" d="M149.7,105.7l1.7,2.7c2,4,3.7,19.5,6.4,26.3c0,0-6.9-9.1-14.2-5.4c-3.9,2-8.5,6.8-10.8,6.1
		c-0.4-0.1-0.8-0.1-1.3-0.1c-0.4-2.9,1.8-8.3,3-14c1.2-5.2,1.4-10.8,2.3-12.7c0,0,2.6-3.2,3.4-3.1L149.7,105.7z"/>
	<path class="st9" d="M149.5,101.6c0.9-2.2,0.9-4.6-0.1-6.7c-0.9-1.3-2.3-2.1-3.9-2.2c-2-0.1-3.9,0.5-5.4,1.8
		c-1.4,1.2-0.8,5.4-0.3,7l0.1,0.2c-0.6,0.9-0.9,2-0.6,3.1c0.1,0.4,1.3,0.3,1.6,1.2c0.8,1.8,3.9,4.5,6.2,4.3c3.5-0.3,3.9-5.6,2.7-8
		L149.5,101.6z"/>
	<path class="st2" d="M147.3,97.2c-2.2-0.5-3.8,0.3-5.3,0.2c-0.1,0.9-0.3,1.9-0.6,2.8c-0.1,0.4-0.1,0.9,0.2,1.3
		c1.2,1.8,3.7,2.3,5.6,1.1c0.5-0.3,0.9-0.8,1.2-1.3c0.2-0.3,0.2-0.7,0.1-1C148,99.2,147.6,98.2,147.3,97.2z"/>
	<path class="st7" d="M146,108.9c1.4,0.5,2.9-0.3,3.4-1.7c0-0.1,0-0.2,0.1-0.3c0.1-0.3-0.4-0.4-0.4-0.1c-0.3,1.2-1.5,2-2.7,1.7
		c0,0-0.1,0-0.1,0C145.9,108.4,145.7,108.8,146,108.9L146,108.9z M141.7,97.8c1.8-1.2,4.1-0.1,6.1-0.7c0.3-0.1,0.1-0.5-0.2-0.4
		c-2,0.6-4.3-0.5-6.1,0.7C141.2,97.6,141.4,98,141.7,97.8z M148.2,104.8c0.4-0.5,0.6-1,0.7-1.6c0-0.2-0.3-0.3-0.4-0.1
		c-0.1,0.5-0.3,1-0.6,1.4c-0.1,0.1-0.1,0.2,0,0.3C148,104.9,148.1,104.9,148.2,104.8z M140.4,102.4c0.6,1.3,1.8,2.2,3.3,2.5
		c0.1,0,0.2-0.1,0.2-0.2c0-0.1-0.1-0.2-0.1-0.2c-1.3-0.2-2.4-1.1-3-2.3C140.6,102.1,140.3,102.2,140.4,102.4L140.4,102.4z"/>
	<path class="st10" d="M242.4,53l-121.3,3.8c-1.8,0.1-3.3,1.6-3.2,3.4c0,0,0,0,0,0l2.3,73.3c0.1,1.8,1.6,3.3,3.4,3.2l121.3-3.7
		c1.8-0.1,3.3-1.6,3.2-3.4l-2.3-73.3C245.8,54.4,244.3,53,242.4,53C242.5,53,242.5,53,242.4,53L242.4,53z M163.8,121l-37,1.2
		l-1.6-51l37-1.1L163.8,121z"/>
	
		<linearGradient id="SVGID_5_" gradientUnits="userSpaceOnUse" x1="154.5826" y1="-19.9741" x2="202.0926" y2="91.9457" gradientTransform="matrix(0.9995 -3.088741e-02 -3.088741e-02 -0.9995 5.8998 136.3328)">
		<stop  offset="0" style="stop-color:#E2E6E8;stop-opacity:0.1"/>
		<stop  offset="1" style="stop-color:#E2E6E8"/>
	</linearGradient>
	<path class="st11" d="M242.4,53l-121.3,3.8c-1.8,0.1-3.3,1.6-3.2,3.4c0,0,0,0,0,0l2.3,73.3c0.1,1.8,1.6,3.3,3.4,3.2l121.3-3.7
		c1.8-0.1,3.3-1.6,3.2-3.4l-2.3-73.3C245.8,54.4,244.3,53,242.4,53C242.5,53,242.5,53,242.4,53L242.4,53z M163.8,121l-37,1.2
		l-1.6-51l37-1.1L163.8,121z"/>
	<linearGradient id="SVGID_6_" gradientUnits="userSpaceOnUse" x1="177.32" y1="84.53" x2="231.36" y2="84.53">
		<stop  offset="0" style="stop-color:#FF9205"/>
		<stop  offset="1" style="stop-color:#FF7205"/>
	</linearGradient>
	<path class="st12" d="M231.4,87.7l-52.1,1.6l-1.6,4.1l52.1-1.6C229.8,91.8,231.4,87.7,231.4,87.7z M231,75.7l-52.1,1.6l-1.6,4.1
		l52.1-1.6L231,75.7z"/>
	<path class="st13" d="M242.4,53l-121.3,3.8c-1.8,0.1-3.3,1.6-3.2,3.4c0,0,0,0,0,0l0.1,3.9l127.9-4l-0.1-3.9
		C245.8,54.4,244.3,52.9,242.4,53L242.4,53z M248,125.6l-127.9,4l0.1,3.9c0.1,1.8,1.6,3.3,3.4,3.2l121.3-3.8
		c1.8-0.1,3.3-1.6,3.2-3.4L248,125.6z"/>
	<linearGradient id="SVGID_7_" gradientUnits="userSpaceOnUse" x1="181.4671" y1="107.8859" x2="224.328" y2="107.8859">
		<stop  offset="0" style="stop-color:#FF9205"/>
		<stop  offset="1" style="stop-color:#FF7205"/>
	</linearGradient>
	<path class="st14" d="M188.6,114c-1.9,0.1-6.5,0.2-7.1-3c-0.6-3,6.9-7.9,10.9-9.2c0.2-0.1,0.5,0,0.7,0.2c0.1,0.2,0,0.5-0.2,0.7
		c0,0-0.1,0-0.1,0c-4.3,1.4-10.6,6.1-10.2,8.1c0.3,1.7,2.2,2.3,6.1,2.2c2.3-0.1,4.5-0.9,6.5-2.1c0-0.1,0-0.2,0-0.3
		c1-2.5,2.9-4.5,5.3-5.7c0.4-0.2,0.8-0.1,1.1,0.1c0.3,0.2,0.5,0.6,0.5,0.9c-0.1,0.8-0.5,1.4-1.1,1.9c-0.7,0.6-1.5,1.3-2.3,1.9
		c2.9-0.6,5.7-1.5,8.4-2.6c0.2-0.1,0.5,0,0.6,0.3c0,0,0,0,0,0c0.1,0.3,0,0.5-0.3,0.6c0,0,0,0,0,0c-0.9,0.4-1.8,1-2.5,1.7
		c4-0.4,8.1-1.1,12-2.1l0.1-0.1c0.6-0.4,1.9-1.1,2.9-0.6c0.2,0.1,0.3,0.3,0.3,0.5c0,0.2-0.2,0.4-0.4,0.4c-0.8,0.2-1.6,0.5-2.4,0.7
		l-0.1,0.1c1.2,0.3,4.6,0.5,6.2-0.7c0.2-0.2,0.5-0.1,0.7,0.1s0.1,0.5-0.1,0.7c-2.2,1.7-6.4,1.2-7.4,0.8c-0.3-0.1-0.5-0.3-0.5-0.6
		c-3.8,0.9-7.6,1.5-11.4,1.9c-0.8,0-1-0.4-1-0.6c0-0.3,0.1-0.6,0.3-0.9c-2.4,0.8-4.9,1.4-7.4,1.8C194.3,112.8,191.5,113.8,188.6,114
		L188.6,114z M200.9,105.9c-0.6,0-3.3,2.1-4.5,4.2c1.3-0.9,2.6-1.9,3.8-3c0.6-0.5,0.8-0.9,0.8-1.1S201,105.9,200.9,105.9
		L200.9,105.9z"/>
	<circle class="st2" cx="160.3" cy="135.1" r="1.5"/>
	<circle class="st2" cx="119.5" cy="99.9" r="1.5"/>
</g>
</svg>
