<?xml version="1.0" encoding="utf-8"?>
<!-- Generator: Adobe Illustrator 24.2.3, SVG Export Plug-In . SVG Version: 6.00 Build 0)  -->
<svg version="1.1" id="Layer_1" xmlns="http://www.w3.org/2000/svg" xmlns:xlink="http://www.w3.org/1999/xlink" x="0px" y="0px"
	 viewBox="0 0 360 196" style="enable-background:new 0 0 360 196;" xml:space="preserve">
<style type="text/css">
	.st0{fill:none;}
	.st1{fill:none;stroke:#849DA8;stroke-width:1.14;stroke-miterlimit:10;}
	.st2{fill:#849DA8;}
	.st3{fill:#253655;}
	.st4{fill:#5D7079;}
	.st5{fill:url(#SVGID_1_);}
	.st6{fill:#C58F62;}
	.st7{fill:#FF9205;}
	.st8{clip-path:url(#SVGID_3_);}
	.st9{fill:url(#SVGID_4_);}
	.st10{fill:url(#SVGID_5_);}
	.st11{fill:#2E4369;}
	.st12{opacity:7.000000e-02;fill:#FF9205;}
</style>
<g id="frames">
	<rect class="st0" width="360" height="196"/>
</g>
<g id="Layer_1_1_">
	<path class="st1" d="M162.1,141.6L162.1,141.6c-0.9,0-1.7,0.8-1.7,1.7v19.4c0,0.9,0.8,1.7,1.7,1.7l0,0"/>
	<path class="st1" d="M194.7,164.4L194.7,164.4c0.9,0,1.7-0.8,1.7-1.7v-19.4c0-0.9-0.8-1.7-1.7-1.7l0,0"/>
	<path class="st2" d="M190.1,121.8L190.1,121.8c0.6,0,1.1,0.5,1.1,1.1v24.4c0,0.6-0.5,1.1-1.1,1.1h0c-0.6,0-1.1-0.5-1.1-1.1v-24.4
		C189,122.3,189.5,121.8,190.1,121.8z"/>
	
		<rect x="165.1" y="127.2" transform="matrix(1 -8.726535e-03 8.726535e-03 1 -1.1919 1.5606)" class="st2" width="26.2" height="20.3"/>
	
		<rect x="163.6" y="145.3" transform="matrix(1 -8.726535e-03 8.726535e-03 1 -1.2858 1.562)" class="st3" width="29.5" height="5.7"/>
	
		<rect x="183.9" y="150.9" transform="matrix(1 -8.726535e-03 8.726535e-03 1 -1.3731 1.6198)" class="st3" width="2.1" height="14.5"/>
	
		<rect x="171.1" y="150.8" transform="matrix(0.9999 -9.999500e-03 9.999500e-03 0.9999 -1.5718 1.7292)" class="st3" width="2.1" height="14.5"/>
	<path class="st3" d="M177.7,167.1l-6.7,0.1v-1.7l5.4-0.1c0.7,0,1.3,0.6,1.3,1.2c0,0,0,0,0,0L177.7,167.1z"/>
	<path class="st3" d="M186,167.1l-6.7,0.1v-0.4c0-0.7,0.5-1.3,1.2-1.3c0,0,0,0,0,0h5.4L186,167.1z"/>
	<path class="st4" d="M193.3,170c-0.8,0.1-1.6-0.6-1.7-1.4l-0.3-31.2c0.1-0.8,0.8-1.4,1.7-1.4c0.8-0.1,1.6,0.6,1.7,1.4l0.3,31.2
		C194.9,169.4,194.1,170.1,193.3,170z"/>
	<path class="st4" d="M163.7,170.3c-0.8,0-1.5-0.6-1.6-1.5l-0.3-31.1c0.1-0.9,1-1.6,1.9-1.5c0.7,0.1,1.3,0.7,1.4,1.4l0.3,31.2
		C165.4,169.7,164.6,170.4,163.7,170.3C163.7,170.3,163.7,170.3,163.7,170.3z"/>
	
		<linearGradient id="SVGID_1_" gradientUnits="userSpaceOnUse" x1="161.61" y1="27.7" x2="190.27" y2="27.7" gradientTransform="matrix(1 0 0 -1 0 198)">
		<stop  offset="0" style="stop-color:#000000;stop-opacity:0"/>
		<stop  offset="6.000000e-02" style="stop-color:#000000;stop-opacity:3.000000e-02"/>
		<stop  offset="0.5" style="stop-color:#000000;stop-opacity:0.1"/>
		<stop  offset="1" style="stop-color:#000000;stop-opacity:0"/>
	</linearGradient>
	<ellipse class="st5" cx="175.9" cy="170.3" rx="14.3" ry="1.1"/>
	<ellipse transform="matrix(0.1449 -0.9895 0.9895 0.1449 44.5566 269.8195)" class="st6" cx="178.4" cy="109.1" rx="4.3" ry="4"/>
	<path class="st7" d="M175.1,114.5l3.2,14.6l3-14.7c0,0-1.3,0.9-4.3,0.6c-0.1,0-0.2,0-0.3-0.1L175.1,114.5z"/>
	<circle class="st6" cx="158.7" cy="124" r="1.7"/>
	<polygon class="st6" points="181.5,164.5 182.9,164.5 183,152.2 179.9,152.2 	"/>
	<polygon class="st6" points="175.6,164.5 177.1,164.5 177.2,152.2 174,152.2 	"/>
	<path class="st4" d="M174.7,105.6c-0.4,0.2-0.6,0.5-0.7,0.9c-0.1,0.6,0.3,1.2,1,1.3c0,0,0,0,0,0c0.4,0.1,0.7-0.1,1-0.3
		c0.2,0.3,0.5,0.5,0.8,0.6c0.3,0.1,0.6,0,0.9-0.2c0.2,0.3,0.5,0.6,0.9,0.6c0.2,0,0.3,0,0.5,0c0.2,0.3,0.5,0.6,0.9,0.6
		c0.2,0,0.4,0,0.6-0.1c0,0.1-0.1,0.2-0.1,0.3c-0.1,0.4,0.1,0.8,0.4,1.1c-0.6,0.3-0.8,1-0.5,1.6c0.3,0.6,1,0.8,1.6,0.5s0.8-1,0.5-1.6
		c0,0,0-0.1-0.1-0.1c0.4-0.1,0.7-0.5,0.8-0.9c0-0.2,0-0.4-0.1-0.6c0.5-0.1,0.8-0.5,0.9-1c0-0.2,0-0.3,0-0.5c0.2-0.2,0.4-0.4,0.4-0.7
		c0.1-0.4-0.1-0.9-0.5-1.1c0.1-0.1,0.1-0.3,0.1-0.4c0.1-0.6-0.3-1.2-1-1.3c0,0,0,0,0,0H183c0.1-0.6-0.4-1.2-1-1.3c0,0,0,0,0,0
		c-0.3,0-0.6,0-0.8,0.2c-0.1-0.5-0.5-0.9-1-1c-0.5-0.1-1,0.2-1.2,0.6c-0.1-0.6-0.8-1-1.4-0.9c-0.4,0.1-0.7,0.3-0.8,0.7
		c-0.2-0.3-0.5-0.5-0.8-0.5c-0.6-0.1-1.2,0.3-1.3,1c0,0,0,0,0,0c-0.1,0.3,0,0.6,0.2,0.9c-0.5,0.4-0.7,1.1-0.3,1.6
		C174.6,105.5,174.7,105.5,174.7,105.6L174.7,105.6z"/>
	<path class="st3" d="M181.3,114.4l-2.6,12.8c0,0.2-0.2,0.4-0.5,0.3c-0.2,0-0.3-0.2-0.3-0.3l-2.8-12.7h-4.7c-0.3,0-0.6,0.3-0.6,0.6
		l0,0l0.9,15.7l-0.7,9.4l16.5-0.1l-1.2-7.5c0-0.6,0-1.2,0-1.8l1.1-9.4v-6c0-0.6-0.4-1-1-1L181.3,114.4z"/>
	<circle class="st4" cx="176" cy="132.1" r="0.8"/>
	<path class="st7" d="M186.8,154.7c0.8-0.5,2-8,2.2-10.1c0.3-1.9-0.8-3.7-2.5-4.5c-1.3-0.2-2.7-0.3-4-0.3c-1.4,0-2.8,0.4-4.1,0.4
		c-1.6-0.1-2.9-0.4-3.8-0.4c-1.5,0-3.1,0.2-4.6,0.4c-1.8,0.8-2.8,2.6-2.5,4.5c0.3,2.1,1.4,9.5,2.4,10.1
		C175.4,153.9,183.1,156.2,186.8,154.7z"/>
	<g>
		<defs>
			<path id="SVGID_2_" d="M181.3,114.1l-2.6,12.9c0,0.2-0.3,0.4-0.5,0.3c-0.2,0-0.3-0.2-0.3-0.3l-2.8-12.9h-4.7
				c-0.3,0-0.6,0.3-0.6,0.6l0.9,16l-0.7,9.5l16.5-0.1l-1.2-7.6c0-0.6,0-1.2,0-1.8l1-9.6l-0.1-7.1L181.3,114.1z"/>
		</defs>
		<clipPath id="SVGID_3_">
			<use xlink:href="#SVGID_2_"  style="overflow:visible;"/>
		</clipPath>
		<g class="st8">
			<path class="st4" d="M178.7,140.2l-0.5-0.1c0.2-2.5,0.2-5.1,0-7.7c0-0.4-0.1-0.9-0.1-1.3c-0.3-1.4-0.3-2.9,0-4.3l0.5,0.1
				c-0.2,1.3-0.2,2.7,0,4.1c0.1,0.5,0.1,0.9,0.1,1.3C178.9,135,178.9,137.6,178.7,140.2z"/>
		</g>
	</g>
	<linearGradient id="SVGID_4_" gradientUnits="userSpaceOnUse" x1="178.9854" y1="164.5292" x2="183.27" y2="164.5292">
		<stop  offset="0" style="stop-color:#FF9205"/>
		<stop  offset="1" style="stop-color:#FF7205"/>
	</linearGradient>
	<path class="st9" d="M179,165.3c0-0.2,0-0.3,0.1-0.5c0.9-0.8,2.1-1.3,3.3-1.4c0.2,0,0.4,0,0.7,0c0.1,0,0.2,0.2,0.2,0.4v1.3
		c0,0.2-0.1,0.4-0.2,0.4h-3.8C179.1,165.6,179,165.4,179,165.3z"/>
	<linearGradient id="SVGID_5_" gradientUnits="userSpaceOnUse" x1="173.2754" y1="164.5292" x2="177.56" y2="164.5292">
		<stop  offset="0" style="stop-color:#FF9205"/>
		<stop  offset="1" style="stop-color:#FF7205"/>
	</linearGradient>
	<path class="st10" d="M173.3,165.3c0-0.2,0-0.3,0.1-0.5c0.9-0.8,2.1-1.3,3.3-1.4c0.2,0,0.4,0,0.7,0c0.1,0,0.2,0.2,0.2,0.4v1.3
		c0,0.2-0.1,0.4-0.2,0.4h-3.8C173.4,165.6,173.3,165.4,173.3,165.3z"/>
	<path class="st11" d="M187.1,115.7c-0.3-0.8-1-1.3-1.9-1.2c-1,0.1-1.6,1.5-1.6,2.1c0,0.2,1.1,7.9,0.8,8.6c-1.2,2.3-9.5-0.7-9.5-0.7
		c0.1,0.4,0.1,0.8,0,1.2c-0.1,0.5-0.4,0.9-0.8,1.1c1.4,0.3,2.8,0.6,4.2,0.8c2.1,0.5,4.2,0.8,6.4,1c3.2,0.2,3.4-3.6,3.3-5.9
		c0-2.3-0.3-4.6-0.9-6.8C187.1,115.8,187.1,115.7,187.1,115.7z"/>
	<polygon class="st12" points="154.9,108.6 169.8,48.9 227.6,91.6 176.8,129.1 	"/>
	<path class="st7" d="M176.3,129.6l-12.6,2.5c-1,0.2-2-0.4-2.3-1.4l-6.4-21c-0.3-0.8,0.1-1.8,1-2.1c0.1,0,0.2,0,0.2-0.1l12.6-2.5
		c1-0.2,2,0.4,2.3,1.4l6.4,21c0.3,0.8-0.1,1.8-0.9,2.1C176.5,129.5,176.4,129.6,176.3,129.6z"/>
	<circle class="st6" cx="172.9" cy="124.7" r="1.7"/>
	<path class="st11" d="M184.4,123.5c0.1,0.5,0.1,1.1,0,1.7c-1.2,2.3-9.5-0.7-9.5-0.7c0.1,0.4,0.1,0.8,0,1.2
		c-0.1,0.5-0.4,0.9-0.8,1.1c1.4,0.3,2.8,0.6,4.2,0.8c2.1,0.5,4.2,0.8,6.4,1c3.2,0.2,3.4-3.6,3.3-5.9c0-0.6,0-1.2-0.1-1.8"/>
</g>
<image style="overflow:visible;" width="438" height="410" xlink:href="../../WhatsApp Image 2021-05-17 at 8.05.58 AM.jpeg"  transform="matrix(1 0 0 1 -588.6143 -90.57)">
</image>
</svg>
