<?xml version="1.0" encoding="utf-8"?>
<!-- Generator: Adobe Illustrator 24.2.3, SVG Export Plug-In . SVG Version: 6.00 Build 0)  -->
<svg version="1.1" id="Layer_1" xmlns="http://www.w3.org/2000/svg" xmlns:xlink="http://www.w3.org/1999/xlink" x="0px" y="0px"
	 viewBox="0 0 340 340" style="enable-background:new 0 0 340 340;" xml:space="preserve">
<style type="text/css">
	.st0{fill:url(#SVGID_1_);}
	.st1{fill:url(#SVGID_2_);}
	.st2{fill:#FFB619;}
	.st3{fill:#FF9205;}
	.st4{fill:#253655;}
	.st5{fill:#6F878F;}
	.st6{fill:#C58F62;}
	.st7{fill:url(#SVGID_3_);}
	.st8{fill:url(#SVGID_4_);}
	.st9{fill:url(#SVGID_5_);}
	.st10{fill:#829CA9;}
	.st11{fill:url(#SVGID_6_);}
	.st12{fill:none;stroke:#849DA8;stroke-width:1.15;stroke-miterlimit:10;}
	.st13{fill:#849DA8;}
	.st14{fill:#5D7079;}
	.st15{clip-path:url(#SVGID_8_);}
	.st16{fill:none;}
</style>
<g id="Layer_1_1_">
	
		<linearGradient id="SVGID_1_" gradientUnits="userSpaceOnUse" x1="56.25" y1="28.965" x2="88.94" y2="28.965" gradientTransform="matrix(1 0 0 -1 0 342)">
		<stop  offset="0" style="stop-color:#000000;stop-opacity:0"/>
		<stop  offset="0.15" style="stop-color:#000000;stop-opacity:5.000000e-02"/>
		<stop  offset="1" style="stop-color:#000000;stop-opacity:0.1"/>
	</linearGradient>
	<path class="st0" d="M59.1,310.7c20.6,0,29.9,0.9,29.9,3.6l-12.2,1.1l-20.5-0.5"/>
	
		<linearGradient id="SVGID_2_" gradientUnits="userSpaceOnUse" x1="119.7" y1="107.6183" x2="271.44" y2="107.6183" gradientTransform="matrix(1 0 0 -1 0 342)">
		<stop  offset="0" style="stop-color:#000000;stop-opacity:0"/>
		<stop  offset="7.000000e-02" style="stop-color:#000000;stop-opacity:0.16"/>
		<stop  offset="0.5" style="stop-color:#000000;stop-opacity:0.3"/>
		<stop  offset="0.93" style="stop-color:#000000;stop-opacity:0.16"/>
		<stop  offset="1" style="stop-color:#000000;stop-opacity:0"/>
	</linearGradient>
	<path class="st1" d="M195.6,232.4c-23.2-0.3-50.5,0-75.9,0v4.1h151.7v-4.1C246.1,232.4,218.7,232.1,195.6,232.4z"/>
	<path class="st2" d="M132.9,121.4h121.8c2.3,0,4.1,1.8,4.1,4.1v106.8c0,2.3-1.8,4.1-4.1,4.1H132.9c-2.3,0-4.1-1.8-4.1-4.1V125.5
		C128.8,123.2,130.6,121.4,132.9,121.4z"/>
	<path class="st3" d="M205.8,169.2c0-6.6-5.4-12-12-12c-6.6,0-12,5.4-12,12c0,3.7,1.7,7.2,4.6,9.4h-0.1v22h15v-22h-0.1
		C204.1,176.3,205.8,172.9,205.8,169.2L205.8,169.2z"/>
	<path class="st4" d="M189.5,178.6c-5.2-4.1-6.1-11.6-2-16.9c1.8-2.3,4.4-3.9,7.4-4.4c-0.7-0.1-0.4-0.2-1.1-0.2c-6.6,0-12,5.4-12,12
		c0,3.7,1.7,7.2,4.6,9.5h-0.1v22h3.1L189.5,178.6L189.5,178.6z"/>
	<path class="st3" d="M241.3,121.4h-15V83.9c0-17.9-14.6-32.5-32.5-32.5S161.3,66,161.3,83.9v37.5h-15V83.9
		c0-26.2,21.3-47.5,47.5-47.5s47.5,21.3,47.5,47.5V121.4z"/>
	<path class="st5" d="M93.3,271.8c0,1.9-6.5,3.1-14.4,3.1s-13.7,0.5-14.8-2.5c-0.1-0.2,0.9-0.6,0.9-0.6c0-2,6.8-3.8,13.9-3.8
		C83.9,268,88.8,269.4,93.3,271.8L93.3,271.8z"/>
	<path class="st6" d="M83.9,311.9l-2.5-0.1l0.3-5.7l2.5,0.1L83.9,311.9z"/>
	<linearGradient id="SVGID_3_" gradientUnits="userSpaceOnUse" x1="77.622" y1="283.5768" x2="91.1904" y2="283.5768">
		<stop  offset="0" style="stop-color:#FF9205"/>
		<stop  offset="1" style="stop-color:#FF7205"/>
	</linearGradient>
	<path class="st7" d="M88.9,314c0.1-0.2,0-0.4-0.1-0.5c-2.1-1.5-4.5-2.4-7.1-2.6c-0.2,0-0.4,0.2-0.4,0.4l-0.1,2.1
		c0,0.2,0.1,0.4,0.4,0.5l6.9,0.3C88.7,314.3,88.9,314.2,88.9,314L88.9,314z M90.8,279.7c-0.8,9.5-2.6,19-5.3,28.1
		c-1.4,0.6-3,0.5-5.1-0.4c1.9-9.2,0.4-19.1-1.6-28.6c-1.8-8.6-1.3-9.2-1.1-15.9c0-1.7,8.4-13.1,10.7-9.4c1,1.6,1.2,3.7,1.5,5.5
		c0.6,3.2,0.9,6.4,1.1,9.7C91.3,272.4,91.2,276.1,90.8,279.7L90.8,279.7z"/>
	<path class="st6" d="M71.9,311.9l-2.5-0.2L70,306l2.5,0.2L71.9,311.9z"/>
	<linearGradient id="SVGID_4_" gradientUnits="userSpaceOnUse" x1="69.4568" y1="313.755" x2="77.174" y2="313.755">
		<stop  offset="0" style="stop-color:#FF9205"/>
		<stop  offset="1" style="stop-color:#FF7205"/>
	</linearGradient>
	<path class="st8" d="M77.1,315.1c0.1-0.2,0-0.4-0.1-0.5c-2.1-1.5-4.6-2.3-7.1-2.5c-0.2,0-0.4,0.2-0.4,0.4c0,0,0,0,0,0l-0.1,2.1
		c0,0.2,0.1,0.4,0.4,0.5c0,0,0,0,0,0l6.9,0.2C76.9,315.4,77.1,315.3,77.1,315.1L77.1,315.1z"/>
	<linearGradient id="SVGID_5_" gradientUnits="userSpaceOnUse" x1="65.8154" y1="281.5473" x2="79.3542" y2="281.5473">
		<stop  offset="0" style="stop-color:#FF9205"/>
		<stop  offset="1" style="stop-color:#FF7205"/>
	</linearGradient>
	<path class="st9" d="M79,280.7c-0.8,9.5-2.6,19-5.3,28.1c-1.4,0.6-3,0.5-5.1-0.4c1.9-9.2,0.4-19.1-1.6-28.6
		c-1.7-8.6-1.2-9.2-1.1-15.9c0-1.7,8.4-13.1,10.7-9.4c1,1.6,1.2,3.7,1.5,5.5c0.6,3.2,1,6.4,1.1,9.7C79.4,273.4,79.3,277.1,79,280.7
		L79,280.7z"/>
	<path class="st10" d="M70,239.3c-2.9,2.6-5,4.8-7.7,3.6c-3.6-1.7-4.1-2.8-6.6-6.1c-0.2-0.3-0.3,0.3-1.3,1c-0.6,0.5-1.6,0.4-1.5,0.5
		c1.6,4.6,6.1,10.9,11,10.8s12.5-2,11.8-8c-0.2-1.7-1.6-3-3.3-3.1C71.6,238.2,70.7,238.6,70,239.3L70,239.3z M80.1,239
		c-0.9,1.3-0.7,3.1,0.6,4.2c3.3,2.9,4,4.5,7.9,9.5c3.9,5,3.9,11.1,4.2,11c1.8-0.9,3.5,0.5,3.4,0.1c-0.3-5-1.3-9.9-2.9-14.6
		c-2-5.7-6.4-10.7-8.7-11.4S81.2,237.5,80.1,239L80.1,239z"/>
	<circle class="st6" cx="53" cy="235.5" r="1.7"/>
	<circle class="st6" cx="95" cy="266.8" r="1.7"/>
	<path class="st10" d="M84.3,239.5l1.9,3c2.2,4.4,4.2,21.8,7.2,29.3c0,0-5.6-2.5-13.7,1.7c-4.4,2.2-11.6-0.2-14.2-1
		c-0.5-0.1-0.9-0.1-1.4,0c-0.5-3.2,2-9.3,3.4-15.6c1.3-5.8,1.5-12,2.6-14.1c0,0,2.9-3.5,3.7-3.5L84.3,239.5z"/>
	<path class="st4" d="M84,235.6c1.2-2.3,1.4-5,0.5-7.5c-0.8-1.5-2.4-2.5-4.1-2.8c-2.2-0.3-4.4,0.2-6.2,1.4c-1.6,1.3-1.3,5.9-1.1,7.7
		c0,0.1,0,0.1,0.1,0.2c-0.8,1-1.1,2.2-1,3.4c0.1,0.5,1.3,0.5,1.7,1.4c0.7,2,3.9,5.4,6.4,5.4c3.9,0,4.8-5.8,3.8-8.7L84,235.6z"/>
	<path class="st6" d="M82,230.5c-2.4-0.8-4.3-0.1-5.9-0.3c-0.2,1-0.5,2-1,3c-0.2,0.4-0.2,1,0.1,1.4c1.2,2.2,4,2.9,6.1,1.7
		c0.5-0.3,1-0.7,1.4-1.2c0.2-0.3,0.3-0.7,0.2-1.1C82.5,232.8,82.2,231.7,82,230.5z"/>
	<path class="st4" d="M54.7,211.9l0.8,0.1l-3.1,20.3c0,0.2-0.2,0.4-0.5,0.3c-0.2,0-0.4-0.2-0.3-0.5
		C51.6,232.3,54.7,211.9,54.7,211.9z"/>
	<path class="st2" d="M53.1,216.5l2.4,0.9c4,1.5,8.4,2.1,12.7,1.7l2.5-0.2l-2.8-4.6l3.4-4.7l-1.9,0.2c-4.3,0.4-8.6-0.2-12.7-1.7
		l-2.4-0.9L53.1,216.5z"/>
	<path class="st10" d="M79.3,243.4c1.5,0.6,3.3-0.1,3.9-1.6c0-0.1,0.1-0.2,0.1-0.2c0.1-0.3-0.4-0.4-0.5-0.1c-0.4,1.3-1.8,2-3.1,1.6
		c-0.1,0-0.1,0-0.2-0.1C79.3,242.8,79,243.2,79.3,243.4L79.3,243.4z M75.6,230.7c2.1-1.1,4.6,0.3,6.8-0.1c0.3-0.1,0.2-0.6-0.1-0.5
		c-2.3,0.5-4.7-1-6.9,0.2C75.1,230.4,75.4,230.8,75.6,230.7z M82.2,239c0.5-0.5,0.8-1.1,0.9-1.7c0.1-0.3-0.3-0.4-0.4-0.1
		c-0.1,0.6-0.4,1.1-0.9,1.6C81.7,238.9,82,239.2,82.2,239z M73.8,235.6c0.6,1.5,1.8,2.7,3.4,3.1c0.1,0,0.2,0,0.3-0.2
		c0-0.1,0-0.2-0.2-0.3c-1.4-0.4-2.5-1.4-3.1-2.8C74.1,235.3,73.7,235.4,73.8,235.6L73.8,235.6z"/>
	
		<linearGradient id="SVGID_6_" gradientUnits="userSpaceOnUse" x1="252.43" y1="76.005" x2="281.91" y2="76.005" gradientTransform="matrix(1 0 0 -1 0 342)">
		<stop  offset="0" style="stop-color:#000000;stop-opacity:0"/>
		<stop  offset="6.000000e-02" style="stop-color:#000000;stop-opacity:3.000000e-02"/>
		<stop  offset="0.5" style="stop-color:#000000;stop-opacity:0.1"/>
		<stop  offset="1" style="stop-color:#000000;stop-opacity:0"/>
	</linearGradient>
	<path class="st11" d="M252.4,262.2h29.5v7.6h-29.5L252.4,262.2z"/>
	<path class="st3" d="M263.9,214.6l-0.1,6.6l3.4,8.1l3.4-8.5l-0.4-6.2c0,0-1.3,0.9-4.3,0.6l-0.3-0.1L263.9,214.6z"/>
	<path class="st4" d="M272.2,250.8l2,0v14.5l-2,0V250.8L272.2,250.8z M267.6,267l6.7,0.1v-1.8l-5.4,0c-0.7,0-1.3,0.6-1.3,1.3
		c0,0,0,0,0,0L267.6,267z"/>
	<path class="st12" d="M250.9,242.2c-0.9,0-1.7,0.8-1.7,1.7c0,0,0,0,0,0v19.4c0,0.9,0.8,1.7,1.7,1.7"/>
	<path class="st13" d="M279.2,221.9L279.2,221.9c0.6,0,1.1,0.5,1.1,1.1v24.5c0,0.6-0.5,1.1-1.1,1.1h0c-0.6,0-1.1-0.5-1.1-1.1v-24.5
		C278.1,222.4,278.6,221.9,279.2,221.9z"/>
	<path class="st13" d="M255,223.8L255,223.8c0.6,0,1.1,0.5,1.1,1.1v24.5c0,0.6-0.5,1.1-1.1,1.1l0,0c-0.6,0-1.1-0.5-1.1-1.1v-24.5
		C253.9,224.3,254.3,223.8,255,223.8z"/>
	<path class="st13" d="M254,248.2h26.3l-0.2-20.4h-26.3L254,248.2L254,248.2z"/>
	<path class="st4" d="M252.3,245.7l29.6-0.3l0.1,5.7l-29.6,0.3L252.3,245.7z"/>
	<path class="st4" d="M262.1,250.8l-2,0v14.5l2,0V250.8L262.1,250.8z"/>
	<path class="st4" d="M266.8,267l-6.7,0.1v-1.8l5.4,0c0.7,0,1.3,0.6,1.3,1.3c0,0,0,0,0,0L266.8,267z"/>
	<ellipse transform="matrix(0.4035 -0.915 0.915 0.4035 -32.0707 368.8185)" class="st6" cx="266.8" cy="209" rx="4.3" ry="4"/>
	<path class="st6" d="M270.1,264.9l1.5,0l0.1-12.4l-3.2,0L270.1,264.9L270.1,264.9z M264.5,264.9l1.5,0l0.1-12.4l-3.2,0L264.5,264.9
		z"/>
	<path class="st14" d="M264.2,204.6c-0.4,0.1-0.7,0.3-0.9,0.7c-0.3,0.6,0,1.3,0.6,1.6c0.6-0.3,1.3-0.1,1.6,0.5
		c0,0.1,0.1,0.2,0.1,0.3c0.3,0.1,0.6,0.1,0.9,0c0.1,0.4,0.3,0.7,0.7,0.8c0.2,0.1,0.3,0.1,0.5,0.1c0.1,0.6,0.7,1,1.3,0.9
		c-0.1,0.1-0.1,0.1-0.1,0.2c0.4,0.5,0.2,1.3-0.3,1.6c-0.1,0.1-0.3,0.2-0.4,0.2c0.6,0.8,1.8,1,2.6,0.3c0.5-0.4,0.7-0.9,0.7-1.5
		c0.5,0,0.9-0.3,1.1-0.7c0.1-0.2,0.1-0.3,0.1-0.5c0.3-0.1,0.5-0.3,0.6-0.6c0.2-0.4,0.1-0.9-0.2-1.2c0.1-0.1,0.2-0.2,0.3-0.4
		c0.3-0.6,0-1.3-0.6-1.6l-0.2-0.1c0.3-0.6,0-1.3-0.6-1.5c-0.3-0.1-0.6-0.1-0.8-0.1c-1.2-0.1-2.3-0.9-2.7-2.1
		c-0.5-0.2-1.1-0.1-1.4,0.3c-1.1,0.1-2.2,0.6-2.9,1.4C264,203.8,264,204.3,264.2,204.6L264.2,204.6z"/>
	<path class="st4" d="M270.1,214.6l-1.3,6.5l-1.3,6.3c0,0.2-0.3,0.4-0.5,0.3c-0.2,0-0.3-0.2-0.3-0.3l-2.8-12.8h-3.5
		c-0.3,0-0.6,14.5-0.6,16.4v0.4l-1,9.1l16.5-0.1c0,0-1-5.5-1.1-7.2s1-11.6,1-11.6s-0.5-7-1.1-7L270.1,214.6z"/>
	<circle class="st14" cx="264.8" cy="232.4" r="0.8"/>
	<path class="st3" d="M275.6,255c0.8-0.5,2-8.1,2.3-10.2c0.3-1.9-0.8-3.7-2.5-4.5c-1.3-0.2-2.7-0.3-4-0.3c-1.4,0-2.8,0.4-4.1,0.3
		c-1.6-0.1-2.9-0.3-3.8-0.3c-1.6,0-3.1,0.2-4.6,0.4c-1.8,0.8-2.8,2.6-2.5,4.5c0.3,2.1,1.4,9.6,2.4,10.1
		C264.3,254.2,272,256.6,275.6,255L275.6,255z"/>
	<g>
		<defs>
			<path id="SVGID_7_" d="M270.1,214.2L270,221l-2.5,6.4c0,0.2-0.2,0.3-0.4,0.3c-0.1,0-0.2-0.1-0.3-0.3l-2.9-13.1h-4.7
				c-0.3,0-0.6,0.3-0.6,0.6c0,0,0,0,0,0l1.2,16.3l-1,9.3l16.6-0.1l-1.2-7.6c0-0.6,0-1.2,0-1.9l1.1-9.6l-0.1-7.1L270.1,214.2z"/>
		</defs>
		<clipPath id="SVGID_8_">
			<use xlink:href="#SVGID_7_"  style="overflow:visible;"/>
		</clipPath>
		<g class="st15">
			<path class="st14" d="M267.6,240.4h-0.5c0.2-2.6,0.2-5.1,0-7.7c0-0.4-0.1-0.9-0.1-1.3c-0.3-1.4-0.3-2.9,0-4.3l0.5,0.1
				c-0.3,1.3-0.3,2.7,0,4.1c0.1,0.5,0.1,0.9,0.1,1.4C267.8,235.3,267.8,237.9,267.6,240.4L267.6,240.4z"/>
		</g>
	</g>
	<path class="st14" d="M267.6,265.7c0-0.2,0-0.3,0.1-0.5c0.9-0.8,2.1-1.3,3.3-1.4c0.2,0,0.5,0,0.7,0c0.1,0,0.2,0.2,0.2,0.4v1.3
		c0,0.2-0.1,0.4-0.2,0.4h-3.8C267.7,265.9,267.6,265.8,267.6,265.7L267.6,265.7z M262.1,265.7c0-0.2,0-0.3,0-0.5
		c0.9-0.8,2.1-1.3,3.3-1.4c0.2,0,0.5,0,0.7,0c0.1,0,0.2,0.2,0.2,0.4v1.3c0,0.2-0.1,0.4-0.2,0.4h-3.8
		C262.2,265.9,262.1,265.8,262.1,265.7L262.1,265.7z"/>
	<path class="st14" d="M252.4,236.5L252.4,236.5c0.9,0,1.6,0.7,1.6,1.6v31c0,0.9-0.7,1.6-1.6,1.6l0,0c-0.9,0-1.6-0.7-1.6-1.6v-31
		C250.9,237.2,251.6,236.5,252.4,236.5z"/>
	<path class="st12" d="M283.5,242.2c0.9,0,1.7,0.8,1.7,1.7c0,0,0,0,0,0v19.4c0,0.9-0.8,1.7-1.7,1.7"/>
	<path class="st14" d="M281.9,270.7L281.9,270.7c-0.9,0-1.6-0.7-1.6-1.6v-31c0-0.9,0.7-1.6,1.6-1.6h0c0.9,0,1.6,0.7,1.6,1.6v31
		C283.5,270,282.8,270.7,281.9,270.7z"/>
	<path class="st4" d="M274.1,214.6c3.4,0.3,7.9,9.4,9,11.4c0.6,1.2,0,8.8,0,8.8l-2.6,0.3c0,0-0.3-5.2-1-7.2
		c-0.2-0.6-5.1-6.1-5.1-6.1L274.1,214.6z"/>
	<circle class="st6" cx="282.3" cy="237" r="1.7"/>
	<circle class="st6" cx="250.4" cy="236.5" r="1.7"/>
	<path class="st4" d="M260.7,214.7c-4.8,0-4.6,11.6-5.8,13.7c-1.4,2-3,3.9-4.6,5.8l2.7,1.7c0,0,4.8-3.9,5.5-6
		c0.2-0.6,2.6-8.6,2.6-8.6L260.7,214.7z"/>
</g>
<path id="Layer_3" class="st16" d="M0,0h340v340H0V0z"/>
</svg>
