<svg xmlns="http://www.w3.org/2000/svg" viewBox="0 0 340 340">
    <defs>
        <style>.cls-1,.cls-13{fill:none}.cls-4{fill:#ffb619}.cls-6{fill:#253655}.cls-7{fill:#485cc7}.cls-9{fill:#fcd3b9}.cls-11{fill:#829ca9}.cls-13{stroke:#849da8;stroke-miterlimit:10;stroke-width:1.15px}.cls-14{fill:#849da8}.cls-15{fill:#5d7079}</style>
        <linearGradient id="linear-gradient" x1="56.25" y1="313.03" x2="88.94" y2="313.03" gradientUnits="userSpaceOnUse">
            <stop offset="0" stop-opacity="0"/>
            <stop offset=".15" stop-opacity=".05"/>
            <stop offset="1" stop-opacity=".1"/>
        </linearGradient>
        <linearGradient id="linear-gradient-2" x1="119.7" y1="234.38" x2="271.44" y2="234.38" gradientUnits="userSpaceOnUse">
            <stop offset="0" stop-opacity="0"/>
            <stop offset=".07" stop-opacity=".16"/>
            <stop offset=".5" stop-opacity=".3"/>
            <stop offset=".93" stop-opacity=".16"/>
            <stop offset="1" stop-opacity="0"/>
        </linearGradient>
        <linearGradient id="linear-gradient-3" x1="252.43" y1="266" x2="281.91" y2="266" gradientUnits="userSpaceOnUse">
            <stop offset="0" stop-opacity="0"/>
            <stop offset=".06" stop-opacity=".03"/>
            <stop offset=".5" stop-opacity=".1"/>
            <stop offset="1" stop-opacity="0"/>
        </linearGradient>
        <clipPath id="clip-path">
            <path class="cls-1" d="M270.14 214.24L270 221l-2.46 6.4a.37.37 0 0 1-.72 0l-2.87-13.13h-4.73a.62.62 0 0 0-.62.63l1.22 16.27-1 9.26 16.56-.15-1.21-7.6a12.7 12.7 0 0 1 0-1.85l1.06-9.58-.06-7.12z"/>
        </clipPath>
    </defs>
    <g id="Layer_1" data-name="Layer 1">
        <path d="M59.06 310.69c20.59 0 29.88.91 29.88 3.56l-12.17 1.13-20.52-.54" fill="url(#linear-gradient)"/>
        <path d="M195.57 232.42c-23.17-.33-50.51 0-75.87 0v4.07h151.74v-4.07c-25.37 0-52.7-.33-75.87 0z" fill="url(#linear-gradient-2)"/>
        <rect class="cls-4" x="128.81" y="121.39" width="130" height="115" rx="4.09"/>
        <path d="M205.81 169.17a12 12 0 1 0-19.41 9.43h-.09v22h15v-22h-.09a12 12 0 0 0 4.59-9.43z" fill="#2e4369"/>
        <path class="cls-6" d="M189.53 178.6a12 12 0 0 1 5.34-21.25c-.67-.12-.35-.19-1.05-.19a12 12 0 0 0-7.42 21.44h-.09v22h3.13v-22z"/>
        <path class="cls-7" d="M241.31 121.43h-15v-37.5a32.5 32.5 0 1 0-65 0v37.5h-15v-37.5a47.5 47.5 0 0 1 95 0z"/>
        <path d="M93.29 271.8c0 1.92-6.47 3.12-14.45 3.12s-13.68.48-14.84-2.52c-.08-.2.94-.64.94-.64 0-2 6.8-3.81 13.88-3.81a31.37 31.37 0 0 1 14.45 3.85z" fill="#6f878f"/>
        <path class="cls-9" transform="rotate(-176.6 82.86 309)" d="M81.63 306.12h2.46v5.75h-2.46z"/>
        <path class="cls-6" d="M88.9 314a.5.5 0 0 0-.07-.5 13.54 13.54 0 0 0-7.1-2.57.43.43 0 0 0-.41.44l-.09 2.14a.43.43 0 0 0 .37.48l6.93.29a.39.39 0 0 0 .37-.28zM90.84 279.68a141.63 141.63 0 0 1-5.28 28.15c-1.38.65-3 .45-5.11-.35 1.94-9.16.37-19.15-1.55-28.59-1.75-8.56-1.26-9.19-1.06-15.89 0-1.66 8.39-13.06 10.68-9.41 1 1.57 1.19 3.72 1.52 5.49a70.1 70.1 0 0 1 1.08 9.68 81.25 81.25 0 0 1-.28 10.92z"/>
        <path class="cls-9" transform="matrix(-1 -.09 .09 -1 114.42 625.58)" d="M70.14 307.33h2.46v5.75h-2.46z"/>
        <path class="cls-6" d="M77.14 315.1a.52.52 0 0 0-.08-.51 13.57 13.57 0 0 0-7.14-2.46.42.42 0 0 0-.4.45l-.06 2.14a.42.42 0 0 0 .38.47l6.93.19a.4.4 0 0 0 .37-.28z"/>
        <path d="M79 280.68a141.63 141.63 0 0 1-5.28 28.15c-1.38.65-3 .46-5.11-.35 1.94-9.16.37-19.15-1.55-28.59-1.71-8.56-1.21-9.19-1.06-15.89 0-1.66 8.39-13.06 10.68-9.41 1 1.57 1.19 3.72 1.52 5.49a70.12 70.12 0 0 1 1.09 9.68 82.94 82.94 0 0 1-.29 10.92z" fill="#2f4367"/>
        <path class="cls-11" d="M70 239.28c-2.86 2.62-5 4.82-7.71 3.55-3.62-1.67-4.08-2.82-6.56-6.1-.22-.29-.27.3-1.25 1-.62.46-1.56.36-1.49.54 1.63 4.64 6.13 10.86 11 10.84s12.48-2 11.81-8a3.44 3.44 0 0 0-3.29-3.11 5.15 5.15 0 0 0-2.51 1.28zM80.11 239a3.2 3.2 0 0 0 .55 4.19c3.31 2.9 4 4.52 7.91 9.49s3.94 11.09 4.16 11c1.79-.9 3.46.48 3.45.09a56 56 0 0 0-2.89-14.61c-2-5.71-6.39-10.7-8.74-11.37s-3.4-.32-4.44 1.23z"/>
        <circle class="cls-9" cx="52.95" cy="235.46" r="1.74"/>
        <circle class="cls-9" cx="95.02" cy="266.84" r="1.74"/>
        <path class="cls-11" d="M84.28 239.47l1.86 3c2.22 4.45 4.15 21.75 7.15 29.3 0 0-5.58-2.46-13.69 1.67-4.38 2.23-11.63-.2-14.19-1a6.42 6.42 0 0 0-1.41-.04c-.48-3.24 2-9.27 3.38-15.65 1.3-5.8 1.53-12 2.61-14.14 0 0 2.91-3.53 3.74-3.5z"/>
        <path class="cls-6" d="M84 235.59a9.29 9.29 0 0 0 .52-7.5 5.51 5.51 0 0 0-4.08-2.77 8.94 8.94 0 0 0-6.2 1.42c-1.64 1.25-1.35 5.89-1.05 7.72a1.17 1.17 0 0 0 .05.2 4.56 4.56 0 0 0-1 3.4c.11.49 1.35.46 1.71 1.44.72 2 3.89 5.37 6.42 5.4 3.89 0 4.83-5.79 3.83-8.66z"/>
        <path class="cls-9" d="M82 230.52c-2.42-.77-4.25-.1-5.87-.34a12.46 12.46 0 0 1-1 3 1.51 1.51 0 0 0 .06 1.4 4.5 4.5 0 0 0 7.51.44 1.19 1.19 0 0 0 .17-1.11 28 28 0 0 1-.87-3.39z"/>
        <path class="cls-6" d="M53.09 211.88h.8v20.55a.4.4 0 0 1-.4.4.4.4 0 0 1-.4-.4v-20.55z" transform="rotate(8.67 53.46 222.23)"/>
        <path class="cls-4" d="M53.1 216.51l2.38.91a28.05 28.05 0 0 0 12.67 1.72l2.53-.24-2.76-4.57 3.38-4.71-1.88.17a28.05 28.05 0 0 1-12.67-1.72l-2.38-.91z"/>
        <path class="cls-11" d="M79.34 243.38a3 3 0 0 0 4-1.89c.1-.31-.39-.44-.48-.13a2.49 2.49 0 0 1-3.29 1.58c-.3-.13-.55.3-.26.44zM75.64 230.66c2.11-1.13 4.58.29 6.79-.15.31-.07.18-.55-.14-.49-2.26.46-4.7-1-6.9.21-.29.15 0 .59.25.43zM82.18 239a3.34 3.34 0 0 0 .95-1.73c.06-.25-.33-.36-.38-.11a3.06 3.06 0 0 1-.86 1.56c-.18.18.1.46.29.28zM73.8 235.65a5.08 5.08 0 0 0 3.38 3.1.22.22 0 0 0 .12-.43 4.66 4.66 0 0 1-3.08-2.79c-.1-.26-.53-.15-.42.12z"/>
        <path fill="url(#linear-gradient-3)" d="M252.43 262.2h29.48v7.59h-29.48z"/>
        <path class="cls-7" d="M263.91 214.65l-.15 6.6 3.4 8.05 3.4-8.49-.42-6.22s-1.33.87-4.31.58l-.33-.06z"/>
        <path class="cls-6" d="M272.24 250.75l2.05.02v14.53l-2.05-.02v-14.53zM267.56 267l6.73.06v-1.76l-5.44-.05a1.27 1.27 0 0 0-1.28 1.26z"/>
        <path class="cls-13" d="M250.85 242.17a1.7 1.7 0 0 0-1.7 1.71v19.43a1.71 1.71 0 0 0 1.7 1.71"/>
        <rect class="cls-14" x="278.12" y="221.95" width="2.22" height="26.76" rx="1.11"/>
        <rect class="cls-14" x="253.85" y="223.76" width="2.22" height="26.76" rx="1.11"/>
        <path class="cls-14" d="M254.04 248.19h26.29l-.18-20.43h-26.29l.18 20.43z"/>
        <path class="cls-6" transform="rotate(-.5 269.35 249.84)" d="M252.37 245.55h29.64v5.73h-29.64z"/>
        <path class="cls-6" d="M262.1 250.75l-2.05.02v14.53l2.05-.02v-14.53z"/>
        <path class="cls-6" d="M266.78 267l-6.73.06v-1.76l5.44-.05a1.27 1.27 0 0 1 1.28 1.26z"/>
        <ellipse class="cls-9" cx="266.83" cy="208.98" rx="4.34" ry="4.04" transform="rotate(-66.2 266.86 208.98)"/>
        <path class="cls-9" d="M270.11 264.88l1.46.02.11-12.39-3.2-.03 1.63 12.4zM264.48 264.88l1.45.02.11-12.39-3.2-.03 1.64 12.4z"/>
        <path class="cls-15" d="M264.24 204.61a1.16 1.16 0 0 0-.91.68 1.18 1.18 0 0 0 .59 1.56 1.17 1.17 0 0 1 1.68.76 1.2 1.2 0 0 0 .91 0 1.16 1.16 0 0 0 .67.84 1.24 1.24 0 0 0 .5.1 1.16 1.16 0 0 0 1.28.94.86.86 0 0 0-.13.23 1.17 1.17 0 0 1-.74 1.81 1.85 1.85 0 0 0 3.32-1.14 1.17 1.17 0 0 0 1.1-.7 1.13 1.13 0 0 0 .1-.51 1.17 1.17 0 0 0 .61-.59 1.19 1.19 0 0 0-.16-1.23 1 1 0 0 0 .25-.35 1.18 1.18 0 0 0-.59-1.56l-.18-.06a1.17 1.17 0 0 0-.59-1.54 1.14 1.14 0 0 0-.83-.05 3.12 3.12 0 0 1-2.68-2.1 1.18 1.18 0 0 0-1.39.33 4.23 4.23 0 0 0-2.9 1.43 1.19 1.19 0 0 0 .09 1.15z"/>
        <path class="cls-6" d="M270.14 214.59l-1.32 6.51-1.28 6.29a.41.41 0 0 1-.8 0l-2.83-12.75h-3.53c-.32 0-.57 14.48-.6 16.36v.41l-1 9.05 16.55-.15s-1-5.54-1.14-7.18 1-11.6 1-11.6-.52-7-1.09-7z"/>
        <circle class="cls-15" cx="264.8" cy="232.35" r=".82"/>
        <path class="cls-7" d="M275.64 255c.84-.49 2-8.07 2.25-10.18a4.26 4.26 0 0 0-2.55-4.49 25.45 25.45 0 0 0-4-.26c-1.39 0-2.78.39-4.14.34-1.6-.06-2.88-.34-3.79-.34a35.58 35.58 0 0 0-4.64.41 4.24 4.24 0 0 0-2.47 4.53c.3 2.11 1.39 9.57 2.42 10.14 5.54-.95 13.28 1.42 16.92-.15z"/>
        <g clip-path="url(#clip-path)">
            <path class="cls-15" d="M267.59 240.45h-.49a47.12 47.12 0 0 0 0-7.69c0-.43-.09-.86-.14-1.32a11.6 11.6 0 0 1 0-4.28l.47.15a11.06 11.06 0 0 0 0 4.06c.06.47.11.91.14 1.35a47.06 47.06 0 0 1 .02 7.73z"/>
        </g>
        <path class="cls-15" d="M267.58 265.66a.58.58 0 0 1 .06-.45 5.94 5.94 0 0 1 3.31-1.37 5.07 5.07 0 0 1 .68 0c.13 0 .23.19.24.42v1.29c0 .23-.11.41-.24.41h-3.84c-.09-.03-.18-.14-.21-.3zM262.12 265.66a.62.62 0 0 1 .05-.45 6 6 0 0 1 3.32-1.37 5.07 5.07 0 0 1 .68 0c.13 0 .23.19.23.42v1.29c0 .23-.1.41-.23.41h-3.84c-.09-.03-.18-.14-.21-.3z"/>
        <rect class="cls-15" x="250.85" y="236.5" width="3.15" height="34.19" rx="1.58"/>
        <path class="cls-13" d="M283.48 242.17a1.7 1.7 0 0 1 1.71 1.71v19.43a1.71 1.71 0 0 1-1.71 1.71"/>
        <rect class="cls-15" x="280.33" y="236.5" width="3.15" height="34.19" rx="1.58" transform="rotate(180 281.91 253.6)"/>
        <path class="cls-6" d="M274.08 214.56c3.39.3 7.92 9.38 9 11.38.64 1.18 0 8.75 0 8.75l-2.65.34s-.26-5.21-1-7.16c-.22-.6-5.15-6.08-5.15-6.08z"/>
        <circle class="cls-9" cx="282.27" cy="236.99" r="1.67"/>
        <circle class="cls-9" cx="250.35" cy="236.5" r="1.67"/>
        <path class="cls-6" d="M260.73 214.67c-4.75 0-4.63 11.59-5.77 13.69a72.15 72.15 0 0 1-4.61 5.79l2.67 1.67s4.77-3.94 5.54-6c.23-.63 2.61-8.63 2.61-8.63z"/>
    </g>
    <path class="cls-1" d="M0 0h340v340H0z" id="Layer_3" data-name="Layer 3"/>
</svg>
